<?xml version="1.0" encoding="UTF-8"?>
<svg version="1.1" xmlns="http://www.w3.org/2000/svg" width="814" height="334">
<path d="M0 0 C268.62 0 537.24 0 814 0 C814 110.22 814 220.44 814 334 C545.38 334 276.76 334 0 334 C0 223.78 0 113.56 0 0 Z " fill="#FEFEFE" transform="translate(0,0)"/>
<path d="M0 0 C91.21535926 -0.02013078 91.21535926 -0.02013078 119.43060303 -0.02565002 C120.4368861 -0.02584736 121.44316917 -0.02604469 122.47994567 -0.02624801 C156.34098007 -0.03287033 190.20201454 -0.03812217 224.06304932 -0.04234314 C225.16773132 -0.0424812 226.27241333 -0.04261925 227.41057054 -0.04276149 C251.41592653 -0.04575412 275.42128255 -0.04852434 299.42663859 -0.05106533 C311.19816271 -0.05231271 322.96968682 -0.05360926 334.74121094 -0.05493164 C336.49836139 -0.05512778 336.49836139 -0.05512778 338.29100983 -0.05532788 C376.2884701 -0.05959233 414.28592889 -0.06710596 452.28338827 -0.07629722 C491.31740633 -0.08572211 530.35142357 -0.09188365 569.38544275 -0.09391499 C574.89356106 -0.09420316 580.40167936 -0.0945288 585.90979767 -0.09487724 C587.5359781 -0.09497838 587.5359781 -0.09497838 589.19501065 -0.09508156 C606.67508473 -0.09626515 624.15515628 -0.10090826 641.63522932 -0.10683203 C659.19119034 -0.11270817 676.74714884 -0.11497077 694.30311081 -0.11350138 C704.7446627 -0.11273844 715.18620538 -0.1147895 725.62775562 -0.12079754 C732.59290572 -0.12453293 739.55804976 -0.12467393 746.52320027 -0.12183181 C750.49810145 -0.12031455 754.47298518 -0.12041732 758.44788453 -0.12488318 C762.0593172 -0.12891007 765.67071867 -0.1283891 769.28215082 -0.12413998 C771.20259608 -0.12308155 773.12304209 -0.12696372 775.04348338 -0.13100848 C776.17627164 -0.12876118 777.30905989 -0.12651389 778.47617507 -0.1241985 C779.45386162 -0.12435448 780.43154818 -0.12451046 781.43886159 -0.12467116 C784 -0 784 -0 788 1 C788 79.87 788 158.74 788 240 C786.35 240 784.7 240 783 240 C783 163.44 783 86.88 783 8 C526.59 8 270.18 8 6 8 C6 103.37 6 198.74 6 297 C147.24 297 288.48 297 434 297 C434 298.65 434 300.3 434 302 C290.78 302 147.56 302 0 302 C0 202.34 0 102.68 0 0 Z " fill="#000000" transform="translate(13,15)"/>
<path d="M0 0 C1.21042969 -0.0299707 1.21042969 -0.0299707 2.4453125 -0.06054688 C3.22648438 -0.05990234 4.00765625 -0.05925781 4.8125 -0.05859375 C5.52019531 -0.06044678 6.22789062 -0.0622998 6.95703125 -0.06420898 C10.02310369 0.68875216 11.04912361 1.95079389 13 4.4375 C14.40488401 7.20161252 15.49536278 10.0621505 16.58984375 12.9609375 C17.09692116 14.2659169 17.09692116 14.2659169 17.61424255 15.59725952 C18.75388433 18.53987093 19.87722497 21.488415 21 24.4375 C21.83292872 26.60471033 22.66644239 28.77169593 23.50048828 30.93847656 C26.20307429 37.97403122 28.88378873 45.01782796 31.5625 52.0625 C33.37544049 56.82584923 35.18936459 61.588823 37.00390625 66.3515625 C37.43728806 67.48943207 37.87066986 68.62730164 38.31718445 69.7996521 C41.10694895 77.11698086 43.92026179 84.42459824 46.77345276 91.71743774 C49.07928369 97.61370769 51.3139356 103.53531588 53.51171875 109.47265625 C54.54272206 112.24481741 55.6131655 114.99814981 56.70703125 117.74609375 C56.98603271 118.45813965 57.26503418 119.17018555 57.55249023 119.90380859 C58.08288951 121.25554743 58.62213227 122.60386562 59.17211914 123.94775391 C60.84321729 128.24711029 61.42060701 131.83924233 61 136.4375 C58.15437318 139.28312682 56.09114437 138.80491221 52.125 138.875 C50.89007812 138.91496094 49.65515625 138.95492187 48.3828125 138.99609375 C45 138.4375 45 138.4375 42.93603516 136.25683594 C41.01200707 133.45498521 39.81271207 130.95087256 38.640625 127.76953125 C38.24746094 126.71185547 37.85429688 125.65417969 37.44921875 124.56445312 C37.05347656 123.47068359 36.65773438 122.37691406 36.25 121.25 C35.83878906 120.14462891 35.42757812 119.03925781 35.00390625 117.90039062 C32 109.74194093 32 109.74194093 32 107.4375 C10.88 107.7675 -10.24 108.0975 -32 108.4375 C-34.97 115.6975 -37.94 122.9575 -41 130.4375 C-44 137.4375 -44 137.4375 -45 138.4375 C-47.49238569 138.56403198 -49.94470441 138.62269825 -52.4375 138.625 C-53.13166016 138.63724609 -53.82582031 138.64949219 -54.54101562 138.66210938 C-56.36220901 138.66739842 -58.1828692 138.55919207 -60 138.4375 C-62 136.4375 -62 136.4375 -62.27636719 133.25195312 C-61.98084243 129.17308491 -61.07234062 126.20503356 -59.578125 122.40625 C-59.32261368 121.74683914 -59.06710236 121.08742828 -58.80384827 120.40803528 C-57.96346222 118.24675239 -57.10676313 116.09233701 -56.25 113.9375 C-55.65013751 112.40303629 -55.05144211 110.86811588 -54.45385742 109.33276367 C-53.23028566 106.19389736 -52.00054654 103.05756552 -50.76513672 99.92333984 C-48.72405005 94.74288257 -46.71359289 89.55092136 -44.70654297 84.35717773 C-43.76860312 81.93019677 -42.82879062 79.50393878 -41.88720703 77.07836914 C-38.71638121 68.9089997 -35.57947246 60.72704782 -32.45703125 52.5390625 C-31.65129107 50.42797651 -30.8455456 48.31689253 -30.03979492 46.20581055 C-28.84440281 43.07346802 -27.64999634 39.9407692 -26.45889282 36.80679321 C-24.00081681 30.33923418 -21.52330569 23.8799179 -19 17.4375 C-18.7057312 16.68494934 -18.4114624 15.93239868 -18.10827637 15.15704346 C-17.32413491 13.17240981 -16.52237352 11.19625989 -15.7109375 9.22265625 C-15.0619751 7.62949585 -15.0619751 7.62949585 -14.39990234 6.00415039 C-10.96154132 -0.29991124 -6.49503788 -0.05706503 0 0 Z " fill="#312C69" transform="translate(691,98.5625)"/>
<path d="M0 0 C1.28874023 -0.03673828 1.28874023 -0.03673828 2.60351562 -0.07421875 C8.83573433 -0.1032283 8.83573433 -0.1032283 11.97265625 1.9609375 C13.94514968 4.9560258 15.31477656 8.03205087 16.5625 11.375 C16.8195874 12.03927002 17.0766748 12.70354004 17.34155273 13.38793945 C19.22926287 18.32270817 20.89957375 23.31850168 22.5246582 28.34545898 C23.45627741 31.064928 24.4948341 33.66662364 25.6328125 36.3046875 C29.79897925 46.20704653 33.54706939 56.27592004 37.375 66.3125 C38.15153083 68.34446291 38.92822259 70.37636433 39.70507812 72.40820312 C42.73664891 80.34011792 45.76569014 88.27296849 48.77880859 96.21191406 C49.1340007 97.14693253 49.48919281 98.08195099 49.85514832 99.04530334 C50.51569857 100.78471816 51.17537734 102.52446433 51.8339386 104.26463318 C54.29000563 110.73069792 56.86117007 117.14662173 59.51029968 123.53596497 C61.31337832 127.93290047 62.04652408 131.54685979 61.5625 136.375 C59.5625 138.375 59.5625 138.375 56.0859375 138.5703125 C54.70299032 138.55701493 53.32011346 138.53316232 51.9375 138.5 C51.23109375 138.49097656 50.5246875 138.48195312 49.796875 138.47265625 C48.05193902 138.44907603 46.30717705 138.41320461 44.5625 138.375 C41.33906576 132.44159893 38.68611123 126.37477265 36.3125 120.0625 C36.05452637 119.38123047 35.79655273 118.69996094 35.53076172 117.99804688 C34.21192581 114.42850297 33.3139249 111.13212451 32.5625 107.375 C11.1125 107.375 -10.3375 107.375 -32.4375 107.375 C-32.7675 109.025 -33.0975 110.675 -33.4375 112.375 C-34.76764527 116.29845531 -36.30373609 120.14214799 -37.8125 124 C-38.21210937 125.04929687 -38.61171875 126.09859375 -39.0234375 127.1796875 C-39.4153125 128.18515625 -39.8071875 129.190625 -40.2109375 130.2265625 C-40.74340088 131.60062256 -40.74340088 131.60062256 -41.28662109 133.00244141 C-42.43735417 135.37469936 -43.35263188 136.77633028 -45.4375 138.375 C-48.72265625 138.73828125 -48.72265625 138.73828125 -52.5 138.6875 C-53.74910156 138.68363281 -54.99820313 138.67976562 -56.28515625 138.67578125 C-59.4375 138.375 -59.4375 138.375 -61.4375 136.375 C-62.26727966 129.79291731 -59.92308061 124.57283974 -57.4921875 118.53515625 C-57.08469269 117.49540146 -56.67719788 116.45564667 -56.25735474 115.38438416 C-54.95347798 112.06426576 -53.63349388 108.75084021 -52.3125 105.4375 C-51.44680143 103.24458056 -50.58220728 101.05122479 -49.71875 98.85742188 C-48.45128034 95.63786999 -47.18304553 92.41864746 -45.9105835 89.20106506 C-43.44570561 82.96452588 -41.02994362 76.71421638 -38.69430542 70.42825317 C-35.40094514 61.56528348 -32.00565306 52.74095455 -28.62402344 43.91137695 C-27.43823826 40.81442815 -26.25424318 37.71679878 -25.0703125 34.61914062 C-23.20490363 29.74164222 -21.32888913 24.86832873 -19.44677734 19.99725342 C-18.5042145 17.54833425 -17.57335963 15.09526593 -16.64453125 12.64111328 C-16.11772872 11.27225253 -15.59042667 9.90358385 -15.0625 8.53515625 C-14.62164062 7.37765869 -14.18078125 6.22016113 -13.7265625 5.02758789 C-10.82201304 -0.94929277 -5.77940081 0.00863241 0 0 Z " fill="#312C6A" transform="translate(116.4375,98.625)"/>
<path d="M0 0 C1.12148438 -0.03996094 2.24296875 -0.07992187 3.3984375 -0.12109375 C7.66662952 0.61783053 8.91512574 2.10642533 11.625 5.4375 C13.11886698 7.64741224 14.51376859 9.83769223 15.875 12.125 C20.3822002 19.50958418 25.06615255 26.76701395 29.8125 34 C30.54805846 35.12187861 31.28357256 36.24378631 32.01904297 37.36572266 C33.12909721 39.05872491 34.23933497 40.75160575 35.35003662 42.44418335 C39.07654692 48.12303282 42.78987345 53.8104377 46.5 59.5 C47.11584961 60.44407715 47.73169922 61.3881543 48.36621094 62.36083984 C52.52019536 68.73244034 56.66036975 75.11284784 60.77490234 81.51000977 C63.40963015 85.5961623 66.09246124 89.64846799 68.79125977 93.69262695 C69.50975601 94.769543 70.22825226 95.84645905 70.96852112 96.95600891 C71.51515915 97.77490097 72.06179718 98.59379303 72.625 99.4375 C72.63308685 98.24146652 72.64117371 97.04543304 72.64950562 95.81315613 C72.72690177 84.55614357 72.81462443 73.29925285 72.91252708 62.04239941 C72.96252921 56.2547719 73.00885891 50.46716299 73.046875 44.67944336 C73.08367829 39.09673515 73.13002472 33.51418114 73.18306351 27.93160439 C73.20163384 25.79892995 73.21673198 23.66622244 73.22834396 21.53349876 C73.24516124 18.55236303 73.27418535 15.57158247 73.30615234 12.59057617 C73.30831253 11.7036911 73.31047272 10.81680603 73.31269836 9.90304565 C73.32386185 9.09116287 73.33502533 8.27928009 73.3465271 7.4427948 C73.35482324 6.38503735 73.35482324 6.38503735 73.36328697 5.30591106 C73.625 3.4375 73.625 3.4375 75.625 0.4375 C78.77734375 0.07421875 78.77734375 0.07421875 82.5625 0.125 C83.80902344 0.12886719 85.05554688 0.13273437 86.33984375 0.13671875 C89.625 0.4375 89.625 0.4375 92.625 2.4375 C92.99973011 4.75232601 92.99973011 4.75232601 92.9992218 7.70701599 C93.00623611 8.82451233 93.01325043 9.94200867 93.02047729 11.09336853 C93.01283356 12.32511307 93.00518982 13.5568576 92.99731445 14.82592773 C93.00096512 16.11862579 93.00461578 17.41132385 93.00837708 18.74319458 C93.01780255 22.29491594 93.0083465 25.84636252 92.99504495 29.39806247 C92.98374837 33.11092098 92.98783662 36.8237656 92.98979187 40.53663635 C92.99067553 46.77357484 92.97958048 53.01040479 92.96118164 59.24731445 C92.94002214 66.46141414 92.93650173 73.67535467 92.9427436 80.8894791 C92.9484361 87.82318695 92.94279235 94.75683865 92.93157005 101.69053841 C92.9269216 104.64383035 92.92605129 107.597088 92.9281559 110.55038261 C92.93038725 114.673566 92.91593781 118.79652594 92.8996582 122.91967773 C92.90213562 124.14939804 92.90461304 125.37911835 92.90716553 126.64610291 C92.90008072 127.76641907 92.89299591 128.88673523 92.88569641 130.04100037 C92.88364354 131.01642509 92.88159067 131.9918498 92.87947559 132.99683285 C92.625 135.4375 92.625 135.4375 90.625 138.4375 C87.5078125 138.87109375 87.5078125 138.87109375 83.75 138.875 C82.51507813 138.89433594 81.28015625 138.91367188 80.0078125 138.93359375 C75.92504585 138.33485083 75.09524626 137.68162009 72.625 134.4375 C70.79877792 131.81660853 69.07686672 129.14046479 67.375 126.4375 C66.39129514 124.89540564 65.40691733 123.35374037 64.421875 121.8125 C63.94298828 121.06097656 63.46410156 120.30945313 62.97070312 119.53515625 C61.22379117 116.81210336 59.42986497 114.12242309 57.625 111.4375 C53.96302545 105.97455436 50.38781698 100.45819711 46.83203125 94.92578125 C43.54738882 89.82620126 40.1894795 84.77811133 36.81982422 79.734375 C33.24671133 74.36715404 29.71153088 68.97518167 26.1784668 63.58154297 C24.9291913 61.67481873 23.67849125 59.76903398 22.42773438 57.86328125 C21.61449707 56.62245237 20.80134306 55.38156888 19.98828125 54.140625 C19.26938721 53.04395508 18.55049316 51.94728516 17.80981445 50.81738281 C16.1742104 48.30435704 14.57541718 45.77026682 12.9884491 43.22625732 C12.54410113 42.51425549 12.09975317 41.80225365 11.64194012 41.06867599 C11.30634988 40.53038792 10.97075964 39.99209984 10.625 39.4375 C10.61913376 40.63353348 10.61326752 41.82956696 10.60722351 43.06184387 C10.55007575 54.31889373 10.47735598 65.57574893 10.38928509 76.83260059 C10.34450734 82.62023853 10.30526759 88.40780485 10.27856445 94.19555664 C10.25260533 99.77831758 10.21225555 105.36080406 10.16181374 110.94339561 C10.1450949 113.07606283 10.13361198 115.20877757 10.12738609 117.34150124 C10.11779949 120.32276998 10.08980569 123.30332853 10.05737305 126.28442383 C10.05880814 127.1713089 10.06024323 128.05819397 10.0617218 128.97195435 C10.04918365 129.78383713 10.03664551 130.59571991 10.02372742 131.4322052 C10.01911845 132.13737683 10.01450949 132.84254847 10.00976086 133.56908894 C9.50158093 136.03682695 8.61506393 136.92805232 6.625 138.4375 C3.33984375 138.8359375 3.33984375 138.8359375 -0.4375 138.8125 C-1.68660156 138.82023438 -2.93570312 138.82796875 -4.22265625 138.8359375 C-5.26292969 138.70445312 -6.30320312 138.57296875 -7.375 138.4375 C-9.61643673 135.07534491 -9.62742364 133.9718244 -9.63569641 130.04100037 C-9.64278122 128.9206842 -9.64986603 127.80036804 -9.65716553 126.64610291 C-9.65468811 125.4163826 -9.65221069 124.18666229 -9.6496582 122.91967773 C-9.65476913 121.62522736 -9.65988007 120.33077698 -9.66514587 118.99710083 C-9.67854694 115.4455759 -9.67911351 111.89415731 -9.67658257 108.34261203 C-9.67551398 105.38012999 -9.68039318 102.41766957 -9.685188 99.45519215 C-9.69628622 92.46921651 -9.6967183 85.48329464 -9.69067383 78.49731445 C-9.68462764 71.28257479 -9.69696057 64.06802984 -9.7182439 56.8533234 C-9.73583345 50.66388593 -9.74186561 44.47451058 -9.73860615 38.28504902 C-9.73678949 34.58608619 -9.73946771 30.88726235 -9.75332069 27.18832207 C-9.7681767 23.06739429 -9.75895226 18.94686576 -9.74731445 14.82592773 C-9.75495819 13.5941832 -9.76260193 12.36243866 -9.77047729 11.09336853 C-9.76346298 9.97587219 -9.75644867 8.85837585 -9.7492218 7.70701599 C-9.74938954 6.7319683 -9.74955729 5.7569206 -9.74973011 4.75232601 C-9.62606917 3.98843343 -9.50240824 3.22454084 -9.375 2.4375 C-5.86838953 0.09975969 -4.16006512 0.0809166 0 0 Z " fill="#2F2A69" transform="translate(389.375,98.5625)"/>
<path d="M0 0 C1.83884766 -0.05994141 1.83884766 -0.05994141 3.71484375 -0.12109375 C7.0625 0.4375 7.0625 0.4375 9.13037109 2.6184082 C11.06071906 5.43490151 12.20098511 7.88723914 13.32421875 11.1015625 C13.71633545 12.21015625 14.10845215 13.31875 14.51245117 14.4609375 C14.92084229 15.64945313 15.3292334 16.83796875 15.75 18.0625 C16.18352783 19.3 16.61705566 20.5375 17.0637207 21.8125 C20.4308354 31.44756446 23.66647998 41.12772314 26.86669922 50.81933594 C29.40564738 58.50755649 32.04754372 66.1531329 34.75073242 73.78491211 C36.29326061 78.16333647 37.73893945 82.549039 39.0625 87 C41.63647477 95.62507336 44.89675514 104.01626296 48.0625 112.4375 C48.35906494 111.54256836 48.65562988 110.64763672 48.96118164 109.72558594 C59.12860274 79.05982849 59.12860274 79.05982849 64.328125 64.359375 C66.00960153 59.60499032 67.65214971 54.83754475 69.29394531 50.06933594 C72.78305216 39.94168932 76.32050326 29.83273235 79.9375 19.75 C80.30665527 18.71721924 80.67581055 17.68443848 81.05615234 16.62036133 C86.40940092 1.76404954 86.40940092 1.76404954 89.0625 0.4375 C91.37171203 0.28870319 93.6861764 0.21615416 96 0.1875 C97.24652344 0.16171875 98.49304688 0.1359375 99.77734375 0.109375 C103.0625 0.4375 103.0625 0.4375 105.03125 1.69140625 C106.81282523 4.70793704 105.76568654 7.02642682 104.99609375 10.30078125 C103.4955657 15.34230435 101.6154905 20.22294606 99.6953125 25.1171875 C98.07086662 29.31959075 96.66939136 33.5846818 95.25878906 37.86279297 C93.00931803 44.58457967 90.64036014 51.26517768 88.29153442 57.95275879 C86.72873595 62.40267303 85.16901272 66.85366465 83.609375 71.3046875 C83.30181778 72.18229736 82.99426056 73.05990723 82.67738342 73.96411133 C80.14303773 81.19943982 77.62821057 88.44133482 75.125 95.6875 C74.77195801 96.70787354 74.41891602 97.72824707 74.05517578 98.77954102 C72.72566937 102.62239971 71.39651557 106.46535279 70.07519531 110.31103516 C69.13683928 113.04186768 68.19379408 115.77104305 67.25 118.5 C66.98388916 119.27956055 66.71777832 120.05912109 66.44360352 120.86230469 C61.33317182 135.59038545 61.33317182 135.59038545 57.0625 138.4375 C53.95444965 138.93696755 50.83144533 138.89973489 47.6875 138.9375 C46.83671875 138.97875 45.9859375 139.02 45.109375 139.0625 C40.68126486 139.11767894 38.70301677 138.96053068 35.1875 136.08984375 C32.20132797 131.69826148 30.89142946 126.55173175 29.4375 121.5 C27.59513507 115.2965415 25.64361489 109.38068249 23.0625 103.4375 C21.7497049 99.72894578 20.53364186 95.98957896 19.3125 92.25 C16.81020345 84.66550639 14.27891536 77.09536964 11.625 69.5625 C11.34414551 68.76513428 11.06329102 67.96776855 10.77392578 67.14624023 C10.48630371 66.32969971 10.19868164 65.51315918 9.90234375 64.671875 C7.42476854 57.63788625 4.98933245 50.58927874 2.55908203 43.53881836 C0.55974291 37.74227482 -1.45936199 31.95378829 -3.51171875 26.17578125 C-4.13651123 24.40485107 -4.13651123 24.40485107 -4.77392578 22.59814453 C-5.57462598 20.32997229 -6.38133208 18.06390881 -7.19482422 15.80029297 C-7.55463379 14.77693848 -7.91444336 13.75358398 -8.28515625 12.69921875 C-8.60492432 11.80162842 -8.92469238 10.90403809 -9.25415039 9.97924805 C-9.97893676 7.2833742 -10.28871533 5.21095105 -9.9375 2.4375 C-6.30509787 0.01589858 -4.32637538 0.07717564 0 0 Z " fill="#302B69" transform="translate(197.9375,98.5625)"/>
<path d="M0 0 C1.23492188 -0.02835937 2.46984375 -0.05671875 3.7421875 -0.0859375 C7.80021098 0.46700334 8.49666578 1.35413925 11.125 4.375 C12.16278854 5.922518 13.14575007 7.50786903 14.078125 9.12109375 C14.61034668 10.0335083 15.14256836 10.94592285 15.69091797 11.88598633 C16.52453857 13.3346106 16.52453857 13.3346106 17.375 14.8125 C18.54862116 16.82602118 19.72309499 18.83904563 20.8984375 20.8515625 C21.46014648 21.81610352 22.02185547 22.78064453 22.60058594 23.77441406 C24.35872211 26.77372004 26.16397392 29.73529947 28 32.6875 C31.72987662 38.71020121 35.41338449 44.76072823 39.07476807 50.82528687 C40.11302352 52.54268942 41.15585159 54.25732488 42.19873047 55.97192383 C42.83439941 57.02661865 43.47006836 58.08131348 44.125 59.16796875 C44.7025 60.1221167 45.28 61.07626465 45.875 62.05932617 C47.125 64.375 47.125 64.375 47.125 66.375 C47.785 66.375 48.445 66.375 49.125 66.375 C49.38659912 65.50311035 49.64819824 64.6312207 49.91772461 63.73291016 C51.12280386 60.38110832 52.57612515 57.67613281 54.44140625 54.6484375 C55.45231323 52.99618164 55.45231323 52.99618164 56.48364258 51.31054688 C57.2180771 50.12358366 57.95270084 48.93673751 58.6875 47.75 C59.44417491 46.51923132 60.20026917 45.28810548 60.95581055 44.05664062 C62.13408153 42.13631653 63.31281448 40.21629339 64.49385071 38.29766846 C67.32314399 33.69816722 70.11532771 29.07756018 72.890625 24.4453125 C74.03650568 22.53770097 75.18276569 20.63031778 76.32907104 18.72296143 C77.0635665 17.4984181 77.79627658 16.27280198 78.52713013 15.04608154 C79.55049088 13.32959961 80.58173164 11.61782321 81.61328125 9.90625 C82.19634033 8.93236328 82.77939941 7.95847656 83.38012695 6.95507812 C85.11129683 4.39526236 86.76368683 2.36760217 89.125 0.375 C92.5078125 -0.05078125 92.5078125 -0.05078125 96.25 0.0625 C98.11011719 0.09923828 98.11011719 0.09923828 100.0078125 0.13671875 C103.125 0.375 103.125 0.375 105.125 1.375 C105.46761836 6.79413697 104.77557315 9.82497892 101.96875 14.453125 C101.46796432 15.29373978 101.46796432 15.29373978 100.95706177 16.15133667 C99.86041588 17.98476251 98.74291374 19.80447905 97.625 21.625 C96.85052949 22.9116832 96.07760276 24.19929676 95.30615234 25.48779297 C93.71250399 28.1451908 92.11103005 30.79761273 90.50292969 33.44628906 C86.87054899 39.43564521 83.31499155 45.4703977 79.75 51.5 C79.09241699 52.60762695 78.43483398 53.71525391 77.75732422 54.85644531 C73.24965815 62.45032914 68.79493328 70.07301404 64.39697266 77.73095703 C63.78668213 78.7922583 63.78668213 78.7922583 63.1640625 79.875 C62.81553223 80.4834375 62.46700195 81.091875 62.10791016 81.71875 C61.16720079 83.30388967 60.14745585 84.84131622 59.125 86.375 C58.81152339 88.63498936 58.81152339 88.63498936 58.83789062 91.16601562 C58.81776917 92.62267639 58.81776917 92.62267639 58.79724121 94.10876465 C58.79196411 95.15568481 58.78668701 96.20260498 58.78125 97.28125 C58.7666272 98.35749634 58.75200439 99.43374268 58.73693848 100.54260254 C58.69037135 103.98669738 58.65620241 107.43073368 58.625 110.875 C58.58394839 115.40646669 58.53031515 119.9375208 58.46875 124.46875 C58.4634729 125.51567017 58.4581958 126.56259033 58.45275879 127.64123535 C58.43263733 129.09789612 58.43263733 129.09789612 58.41210938 130.58398438 C58.40481812 131.43875366 58.39752686 132.29352295 58.39001465 133.17419434 C58.125 135.375 58.125 135.375 56.125 138.375 C53.36553386 138.67830339 50.88004315 138.79334858 48.125 138.75 C47.38765625 138.76160156 46.6503125 138.77320313 45.890625 138.78515625 C43.75 138.7734375 43.75 138.7734375 40.125 138.375 C38.00282974 135.19174461 37.87999738 134.44173287 37.90136719 130.80273438 C37.90086365 129.87746948 37.90036011 128.95220459 37.89984131 127.99890137 C37.90711243 126.99895142 37.91438354 125.99900146 37.921875 124.96875 C37.91131768 122.84113975 37.8995597 120.71353519 37.88671875 118.5859375 C37.87644801 115.23963173 37.87488496 111.89411991 37.89501953 108.54785156 C38.25540719 91.4518436 38.25540719 91.4518436 31.125 76.375 C29.82318058 74.17142588 28.5419913 71.95558431 27.27734375 69.73046875 C26.59160253 68.55711485 25.9035777 67.38509285 25.21337891 66.21435547 C24.86253235 65.61862732 24.51168579 65.02289917 24.15020752 64.40911865 C23.79126404 63.7997345 23.43232056 63.19035034 23.0625 62.5625 C22.30895281 61.2801866 21.55553675 59.99779614 20.80224609 58.71533203 C16.82900341 51.95412836 12.84327313 45.20034481 8.84838867 38.4519043 C7.28136307 35.8030159 5.7186474 33.15162012 4.15625 30.5 C2.07284392 26.96632683 -0.03536812 23.44879375 -2.15625 19.9375 C-3.18777929 18.20849993 -4.21904086 16.4793401 -5.25 14.75 C-5.7332373 13.96157715 -6.21647461 13.1731543 -6.71435547 12.36083984 C-7.36235107 11.26570068 -7.36235107 11.26570068 -8.0234375 10.1484375 C-8.40677246 9.51341309 -8.79010742 8.87838867 -9.18505859 8.22412109 C-10.06878028 5.85564691 -9.7884461 4.70467894 -8.875 2.375 C-6.02535053 -0.47464947 -3.97007176 0.04126894 0 0 Z " fill="#302C69" transform="translate(513.875,98.625)"/>
<path d="M0 0 C91.21535926 -0.04026156 91.21535926 -0.04026156 119.43060303 -0.05130005 C120.94002764 -0.05189205 120.94002764 -0.05189205 122.47994567 -0.05249601 C156.34097962 -0.06574066 190.20201384 -0.07624434 224.06304932 -0.08468628 C225.16773132 -0.08496239 226.27241333 -0.08523851 227.41057054 -0.08552299 C251.41592646 -0.09150823 275.42128246 -0.09704868 299.42663859 -0.10213066 C311.19816272 -0.10462542 322.96968684 -0.10721852 334.74121094 -0.10986328 C335.91264457 -0.1101248 337.08407821 -0.11038632 338.29100983 -0.11065576 C376.28847249 -0.11918467 414.28592921 -0.13421191 452.28338827 -0.15259444 C491.31740603 -0.17144422 530.35142051 -0.18376731 569.38544275 -0.18782998 C574.89356106 -0.18840632 580.40167937 -0.1890576 585.90979767 -0.18975449 C586.99391795 -0.18988933 588.07803824 -0.19002418 589.19501065 -0.19016311 C606.6750883 -0.1925303 624.15515581 -0.20181652 641.63522932 -0.21366407 C659.19119191 -0.22541634 676.74714442 -0.22994155 694.30311081 -0.22700275 C704.74467355 -0.22547688 715.18619949 -0.22957899 725.62775562 -0.24159509 C732.59291137 -0.24906586 739.55804288 -0.24934787 746.52320027 -0.24366363 C750.49812075 -0.24062909 754.47297139 -0.24083462 758.44788453 -0.24976636 C762.05934891 -0.2578202 765.6706885 -0.25677828 769.28215082 -0.24827995 C771.2025993 -0.24616311 773.12305077 -0.25392747 775.04348338 -0.26201695 C776.74266576 -0.25527507 776.74266576 -0.25527507 778.47617507 -0.24839699 C779.9427049 -0.24886493 779.9427049 -0.24886493 781.43886159 -0.24934233 C784 -0 784 -0 788 2 C528.29 1.67 268.58 1.34 1 1 C1 100 1 199 1 301 C2.32 301 3.64 301 5 301 C5 203.98 5 106.96 5 7 C261.74 7 518.48 7 783 7 C783 7.33 783 7.66 783 8 C526.59 8 270.18 8 6 8 C6 103.37 6 198.74 6 297 C147.24 297 288.48 297 434 297 C434 298.65 434 300.3 434 302 C290.78 302 147.56 302 0 302 C0 202.34 0 102.68 0 0 Z " fill="#474747" transform="translate(13,15)"/>
<path d="M0 0 C1.03447266 0.01160156 1.03447266 0.01160156 2.08984375 0.0234375 C2.77949219 0.01570313 3.46914063 0.00796875 4.1796875 0 C9.33651082 0.02010457 9.33651082 0.02010457 11.58984375 2.2734375 C11.84152603 4.60667419 11.84152603 4.60667419 11.84381104 7.58764648 C11.84945068 8.71500214 11.85509033 9.84235779 11.86090088 11.00387573 C11.85685242 12.24654205 11.85280396 13.48920837 11.84863281 14.76953125 C11.85213745 16.07358917 11.85564209 17.37764709 11.85925293 18.72122192 C11.86839019 22.30380575 11.86482723 25.88627472 11.85849476 29.46886063 C11.85344165 33.21288621 11.85812429 36.95690177 11.86126709 40.70092773 C11.86490875 46.98911307 11.86010241 53.27725147 11.85058594 59.56542969 C11.83970098 66.84202682 11.84322642 74.1185119 11.85423875 81.39510632 C11.86330594 87.63547572 11.8645997 93.87581133 11.85936141 100.11618519 C11.85623857 103.8464269 11.85584093 107.57661589 11.86243439 111.30685425 C11.86926836 115.46375193 11.8598044 119.62045551 11.84863281 123.77734375 C11.85268127 125.02001007 11.85672974 126.26267639 11.86090088 127.54299927 C11.85526123 128.67035492 11.84962158 129.79771057 11.84381104 130.95922852 C11.84305698 131.94294937 11.84230293 132.92667023 11.84152603 133.94020081 C11.58984375 136.2734375 11.58984375 136.2734375 9.58984375 138.2734375 C7.04449234 138.47192821 4.63267616 138.55195525 2.08984375 138.5234375 C1.40019531 138.53117188 0.71054687 138.53890625 0 138.546875 C-5.15682332 138.52677043 -5.15682332 138.52677043 -7.41015625 136.2734375 C-7.66183853 133.94020081 -7.66183853 133.94020081 -7.66412354 130.95922852 C-7.66976318 129.83187286 -7.67540283 128.70451721 -7.68121338 127.54299927 C-7.67716492 126.30033295 -7.67311646 125.05766663 -7.66894531 123.77734375 C-7.67244995 122.47328583 -7.67595459 121.16922791 -7.67956543 119.82565308 C-7.68870269 116.24306925 -7.68513973 112.66060028 -7.67880726 109.07801437 C-7.67375415 105.33398879 -7.67843679 101.58997323 -7.68157959 97.84594727 C-7.68522125 91.55776193 -7.68041491 85.26962353 -7.67089844 78.98144531 C-7.66001348 71.70484818 -7.66353892 64.4283631 -7.67455125 57.15176868 C-7.68361844 50.91139928 -7.6849122 44.67106367 -7.67967391 38.43068981 C-7.67655107 34.7004481 -7.67615343 30.97025911 -7.68274689 27.24002075 C-7.68958086 23.08312307 -7.6801169 18.92641949 -7.66894531 14.76953125 C-7.67299377 13.52686493 -7.67704224 12.28419861 -7.68121338 11.00387573 C-7.67275391 9.31284225 -7.67275391 9.31284225 -7.66412354 7.58764648 C-7.66336948 6.60392563 -7.66261543 5.62020477 -7.66183853 4.60667419 C-7.13908149 -0.23957841 -4.20642781 0.01639933 0 0 Z " fill="#2E2967" transform="translate(334.41015625,98.7265625)"/>
<path d="M0 0 C2.63229099 3.16390306 4.02497616 6.25314372 5.453125 10.1015625 C6.12964111 11.90741821 6.12964111 11.90741821 6.81982422 13.74975586 C7.29662256 15.04147693 7.77334636 16.33322552 8.25 17.625 C8.98952466 19.60738031 9.73125373 21.58892739 10.47299194 23.57048035 C10.96403815 24.8830202 11.45429601 26.19585527 11.9437561 27.50898743 C13.86952119 32.67252363 15.85643875 37.80969863 17.875 42.9375 C26 63.69472927 26 63.69472927 26 67 C9.17 67 -7.66 67 -25 67 C-23.05477509 60.51591696 -21.06958985 54.27807797 -18.625 48 C-17.92820744 46.19147481 -17.23160813 44.38287516 -16.53515625 42.57421875 C-16.14344238 41.56020996 -15.75172852 40.54620117 -15.34814453 39.50146484 C-13.76354348 35.38586393 -12.19159492 31.26552849 -10.62109375 27.14453125 C-9.73131504 24.81109638 -8.84145776 22.47769149 -7.95159912 20.14428711 C-7.35932828 18.59097379 -6.76724627 17.03758847 -6.175354 15.48413086 C-5.33796978 13.28720867 -4.49922985 11.09080867 -3.66015625 8.89453125 C-3.40632675 8.22774857 -3.15249725 7.56096588 -2.89097595 6.87397766 C-1.11412242 2.22824484 -1.11412242 2.22824484 0 0 Z " fill="#F9F9FB" transform="translate(116,121)"/>
<path d="M0 0 C3.34772921 1.67386461 3.92951361 5.46089728 5.1875 8.8125 C5.49502197 9.6163916 5.80254395 10.4202832 6.11938477 11.24853516 C8.6445246 17.9089371 10.98146569 24.63038143 13.29248047 31.36743164 C15.73363024 38.41257622 18.46517545 45.32188679 21.33569336 52.20263672 C21.65417236 52.97623535 21.97265137 53.74983398 22.30078125 54.546875 C22.58091064 55.21557617 22.86104004 55.88427734 23.1496582 56.57324219 C24.34116665 59.97364241 25.12611705 63.50446818 26 67 C9.17 67 -7.66 67 -25 67 C-23.05477509 60.51591696 -21.06958985 54.27807797 -18.625 48 C-17.92820744 46.19147481 -17.23160813 44.38287516 -16.53515625 42.57421875 C-16.14344238 41.56020996 -15.75172852 40.54620117 -15.34814453 39.50146484 C-13.76354348 35.38586393 -12.19159492 31.26552849 -10.62109375 27.14453125 C-9.73131504 24.81109638 -8.84145776 22.47769149 -7.95159912 20.14428711 C-7.35932828 18.59097379 -6.76724627 17.03758847 -6.175354 15.48413086 C-5.33796978 13.28720867 -4.49922985 11.09080867 -3.66015625 8.89453125 C-3.40632675 8.22774857 -3.15249725 7.56096588 -2.89097595 6.87397766 C-1.11412242 2.22824484 -1.11412242 2.22824484 0 0 Z " fill="#FAFAFB" transform="translate(690,121)"/>
<path d="M0 0 C0.33 0 0.66 0 1 0 C1.33 77.88 1.66 155.76 2 236 C4.13982661 233.86017339 3.15503616 228.92362763 3.15821838 225.95823669 C3.16315636 224.99774746 3.16809434 224.03725824 3.17318195 223.04766327 C3.18863893 219.80318036 3.19693964 216.55871734 3.20532227 213.31420898 C3.21489436 210.99881818 3.22490403 208.68342915 3.23532104 206.36804199 C3.2624487 200.06046241 3.28341556 193.75287529 3.30332303 187.44526935 C3.32513428 180.86153447 3.35254666 174.27782304 3.37937927 167.69410706 C3.42385017 156.63665856 3.46450832 145.57920043 3.50268555 134.52172852 C3.54202479 123.13044292 3.58344722 111.73916806 3.62768555 100.34790039 C3.63040982 99.64621915 3.63313409 98.94453792 3.63594092 98.22159361 C3.64962014 94.70160737 3.66334046 91.18162128 3.67708123 87.66163528 C3.79109448 58.44111283 3.89781927 29.22056617 4 0 C4.33 0 4.66 0 5 0 C5 78.54 5 157.08 5 238 C3.35 238 1.7 238 0 238 C0 159.46 0 80.92 0 0 Z " fill="#222222" transform="translate(796,17)"/>
<path d="M0 0 C3.02508145 1.73602105 5.41790069 3.83580137 7 7 C7.5862903 11.9415897 7.56671869 14.9252172 4.5625 19 C1.98337228 21.67080288 0.14493482 22.50770801 -3.5625 22.6875 C-7.76153575 22.3411149 -10.10522028 21.15794151 -13 18 C-15.29409636 14.72271949 -15.54048547 11.93782275 -15 8 C-11.37700746 1.42743361 -7.82943602 -1.33637869 0 0 Z " fill="#3E3866" transform="translate(746,306)"/>
<path d="M0 0 C3.89428305 0.01860326 4.55443387 0.21610252 7.75 2.8125 C8.41 3.658125 9.07 4.50375 9.75 5.375 C10.08 5.705 10.41 6.035 10.75 6.375 C11.18836682 9.75668693 11.23685233 12.99844355 10.75 16.375 C8.3125 19.4375 8.3125 19.4375 5.75 21.375 C5.42 21.705 5.09 22.035 4.75 22.375 C0.13455511 22.95669863 -3.25133167 22.9991677 -7.25 20.5 C-10.72956467 16.80296253 -10.63460863 13.77889034 -10.61328125 8.859375 C-10.06933598 5.1394912 -8.16576392 3.57960199 -5.25 1.375 C-3.69049449 -0.18450551 -2.16122869 0.09303302 0 0 Z " fill="#3D3666" transform="translate(658.25,305.625)"/>
<path d="M0 0 C2.52772364 1.44441351 3.1989653 2.55399627 4.1875 5.25 C2.25 5.8125 2.25 5.8125 0.1875 6.25 C-0.1425 5.92 -0.4725 5.59 -0.8125 5.25 C-2.33178038 5.17820036 -3.85417482 5.16607993 -5.375 5.1875 C-6.20128906 5.19652344 -7.02757812 5.20554687 -7.87890625 5.21484375 C-8.83603516 5.23224609 -8.83603516 5.23224609 -9.8125 5.25 C-9.8125 6.9 -9.8125 8.55 -9.8125 10.25 C-8.801875 10.6625 -7.79125 11.075 -6.75 11.5 C2.9454291 15.69741138 2.9454291 15.69741138 5.6875 19.125 C6.4184574 22.23156895 6.12313638 24.19358781 5.1875 27.25 C3.3125 30.125 3.3125 30.125 0.1875 32.25 C-5.14975826 33.17159865 -9.36405137 33.15883051 -14 30.25 C-14.598125 29.59 -15.19625 28.93 -15.8125 28.25 C-15.3175 26.765 -15.3175 26.765 -14.8125 25.25 C-12.64375748 25.75603992 -10.81282373 26.24983813 -8.8125 27.25 C-4.15974024 27.5552622 -4.15974024 27.5552622 0.1875 26.25 C0.1875 24.6 0.1875 22.95 0.1875 21.25 C-0.39257812 21.00765625 -0.97265625 20.7653125 -1.5703125 20.515625 C-13.80409664 15.26680672 -13.80409664 15.26680672 -15.8125 11.25 C-16.25 7.9375 -16.25 7.9375 -15.8125 4.25 C-11.04353711 -1.2168599 -7.09285681 -1.89142848 0 0 Z " fill="#383260" transform="translate(637.8125,295.75)"/>
<path d="M0 0 C3.30980596 0.03677562 4.36865561 0.08358608 7.125 2.0625 C10.10027057 6.34688961 10.6875 7.81893569 10.6875 13.3125 C5.4075 13.3125 0.1275 13.3125 -5.3125 13.3125 C-1.19268282 18.4752916 -1.19268282 18.4752916 2.14453125 18.58203125 C2.92183594 18.43121094 3.69914063 18.28039062 4.5 18.125 C5.29019531 17.98707031 6.08039062 17.84914063 6.89453125 17.70703125 C7.48621094 17.57683594 8.07789063 17.44664062 8.6875 17.3125 C9.0175 18.3025 9.3475 19.2925 9.6875 20.3125 C5.37184778 22.74371584 1.5575853 23.15507531 -3.3125 22.3125 C-6.88486674 20.3854972 -9.00810702 18.22567895 -10.3125 14.3125 C-10.81724898 9.09676052 -10.81724898 9.09676052 -10.3125 6.3125 C-7.875 3.375 -7.875 3.375 -5.3125 1.3125 C-3.74308802 -0.25691198 -2.17115006 0.0675153 0 0 Z " fill="#3B3463" transform="translate(547.3125,305.6875)"/>
<path d="M0 0 C1.65 0 3.3 0 5 0 C5 4.29 5 8.58 5 13 C5.66 12.67 6.32 12.34 7 12 C12.71201413 11.34452297 12.71201413 11.34452297 15 12 C17.76855316 14.52798087 19.65797623 16.27934439 20.39624023 19.9934082 C20.49076284 22.14235573 20.43868053 24.22798978 20.3125 26.375 C20.28994141 27.11105469 20.26738281 27.84710938 20.24414062 28.60546875 C20.18572927 30.40453842 20.09606337 32.20254753 20 34 C18.68 34 17.36 34 16 34 C15.95101562 33.02417969 15.90203125 32.04835938 15.8515625 31.04296875 C15.73941406 29.13451172 15.73941406 29.13451172 15.625 27.1875 C15.55539062 25.92292969 15.48578125 24.65835937 15.4140625 23.35546875 C15.23897061 19.87244766 15.23897061 19.87244766 13 17 C10.69 17 8.38 17 6 17 C5.67 22.61 5.34 28.22 5 34 C3.35 34 1.7 34 0 34 C0 22.78 0 11.56 0 0 Z " fill="#4F4A76" transform="translate(585,294)"/>
<path d="M0 0 C1.17949219 0.01804687 2.35898437 0.03609375 3.57421875 0.0546875 C4.92966797 0.08949219 4.92966797 0.08949219 6.3125 0.125 C6.3125 0.455 6.3125 0.785 6.3125 1.125 C5.15621094 1.19847656 5.15621094 1.19847656 3.9765625 1.2734375 C2.97367187 1.34820312 1.97078125 1.42296875 0.9375 1.5 C-0.06023437 1.56960937 -1.05796875 1.63921875 -2.0859375 1.7109375 C-4.84258879 1.88863964 -4.84258879 1.88863964 -6.6875 4.125 C-6.98631863 6.51696624 -6.98631863 6.51696624 -6.92800903 9.33877563 C-6.93075836 10.44377914 -6.93350769 11.54878265 -6.93634033 12.68727112 C-6.92914978 13.90502731 -6.92195923 15.12278351 -6.91455078 16.37744141 C-6.91484283 17.6554512 -6.91513489 18.933461 -6.91543579 20.25019836 C-6.91601098 23.76035444 -6.9042299 27.27037457 -6.89028788 30.78049898 C-6.87780814 34.44670712 -6.8766122 38.11291818 -6.87423706 41.77914429 C-6.86801416 48.72417901 -6.85159243 55.66915098 -6.83153808 62.61415803 C-6.80920423 70.51972837 -6.79819199 78.42530165 -6.78814721 86.33089566 C-6.76722687 102.59563388 -6.73203522 118.86030894 -6.6875 135.125 C-7.6775 135.125 -8.6675 135.125 -9.6875 135.125 C-9.75750993 117.81851648 -9.81044874 100.51207701 -9.84293652 83.20548439 C-9.85842056 75.17014463 -9.87953928 67.13489274 -9.91381836 59.09960938 C-9.94367385 52.09792568 -9.96306382 45.0963056 -9.96976548 38.09456003 C-9.97368432 34.38546589 -9.98292564 30.67655378 -10.00469017 26.96751785 C-10.02876189 22.83194067 -10.02947249 18.6966821 -10.02807617 14.56103516 C-10.038862 13.32457748 -10.04964783 12.08811981 -10.0607605 10.81419373 C-10.05663651 9.69236191 -10.05251251 8.57053009 -10.04826355 7.41470337 C-10.05102893 6.43575922 -10.05379431 5.45681507 -10.05664349 4.44820595 C-9.93482614 3.68154799 -9.81300879 2.91489002 -9.6875 2.125 C-6.05554504 -0.29630331 -4.30400652 -0.08522785 0 0 Z " fill="#35325D" transform="translate(389.6875,98.875)"/>
<path d="M0 0 C7.59 0 15.18 0 23 0 C23 1.65 23 3.3 23 5 C20.03 5 17.06 5 14 5 C14 14.24 14 23.48 14 33 C12.35 33 10.7 33 9 33 C9 23.76 9 14.52 9 5 C6.03 5 3.06 5 0 5 C0 3.35 0 1.7 0 0 Z " fill="#635E86" transform="translate(511,295)"/>
<path d="M0 0 C1.32 0 2.64 0 4 0 C4.06058594 1.14339844 4.12117187 2.28679687 4.18359375 3.46484375 C4.26798428 4.95574305 4.35263302 6.44662775 4.4375 7.9375 C4.47681641 8.69224609 4.51613281 9.44699219 4.55664062 10.22460938 C4.44038024 13.91944187 4.44038024 13.91944187 6 17 C8.95804573 17.33340471 8.95804573 17.33340471 12 17 C14.42479736 13.36280395 14.38662577 11.14296518 14.625 6.8125 C14.69976563 5.54019531 14.77453125 4.26789063 14.8515625 2.95703125 C14.90054688 1.98121094 14.94953125 1.00539063 15 0 C16.32 0 17.64 0 19 0 C19 7.26 19 14.52 19 22 C17.35 21.67 15.7 21.34 14 21 C13.34 21.33 12.68 21.66 12 22 C7.80517082 22.47488632 5.75346161 22.54826817 2.2890625 20.02734375 C-0.79216184 15.95234569 -0.58217547 13.137082 -0.3125 8.1875 C-0.28994141 7.39923828 -0.26738281 6.61097656 -0.24414062 5.79882812 C-0.18554161 3.86506071 -0.09586827 1.93227833 0 0 Z " fill="#342E60" transform="translate(683,306)"/>
<path d="M0 0 C2.475 0.495 2.475 0.495 5 1 C5.33 0.67 5.66 0.34 6 0 C13.02242308 -0.70224231 13.02242308 -0.70224231 16.74609375 1.97265625 C19.7813189 6.0494318 19.58100174 8.88446041 19.3125 13.8125 C19.28994141 14.60076172 19.26738281 15.38902344 19.24414062 16.20117188 C19.18554161 18.13493929 19.09586827 20.06772167 19 22 C17.68 22 16.36 22 15 22 C14.93941406 20.85660156 14.87882813 19.71320313 14.81640625 18.53515625 C14.73201572 17.04425695 14.64736698 15.55337225 14.5625 14.0625 C14.52318359 13.30775391 14.48386719 12.55300781 14.44335938 11.77539062 C14.55961976 8.08055813 14.55961976 8.08055813 13 5 C10.36 5 7.72 5 5 5 C4.67 10.61 4.34 16.22 4 22 C2.68 22 1.36 22 0 22 C0 14.74 0 7.48 0 0 Z " fill="#3C3562" transform="translate(757,306)"/>
<path d="M0 0 C2.4375 1.3125 2.4375 1.3125 4 3 C4 3.99 4 4.98 4 6 C0.7 5.67 -2.6 5.34 -6 5 C-6 5.66 -6 6.32 -6 7 C-5.37351562 7.26554687 -4.74703125 7.53109375 -4.1015625 7.8046875 C-2.87566406 8.33449219 -2.87566406 8.33449219 -1.625 8.875 C-0.81289063 9.22304688 -0.00078125 9.57109375 0.8359375 9.9296875 C3 11 3 11 5 13 C4.8062701 16.0351018 4.59604417 18.21505567 2.73046875 20.671875 C0.52064539 22.36790196 -0.74077341 22.37228324 -3.5 22.3125 C-4.2734375 22.30863281 -5.046875 22.30476563 -5.84375 22.30078125 C-8 22 -8 22 -11 20 C-10.67 18.68 -10.34 17.36 -10 16 C-7.03 16.33 -4.06 16.66 -1 17 C-1 16.01 -1 15.02 -1 14 C-1.55429687 13.80664062 -2.10859375 13.61328125 -2.6796875 13.4140625 C-3.40414062 13.15367187 -4.12859375 12.89328125 -4.875 12.625 C-5.95394531 12.24214844 -5.95394531 12.24214844 -7.0546875 11.8515625 C-9 11 -9 11 -11 9 C-11.375 6.0625 -11.375 6.0625 -11 3 C-7.93204001 -0.68155198 -4.54559187 -0.4870277 0 0 Z " fill="#3C3663" transform="translate(792,306)"/>
<path d="M0 0 C2.5 1.5 2.5 1.5 4 3 C3.67 3.99 3.34 4.98 3 6 C2.01 5.67 1.02 5.34 0 5 C-3.54187831 4.66661404 -3.54187831 4.66661404 -7 5 C-9.32749345 8.49124017 -9.50299316 9.89222251 -9 14 C-7.45714369 16.54331238 -7.45714369 16.54331238 -5 18 C-2.46048456 17.90888062 -2.46048456 17.90888062 0 17 C0.763125 16.814375 1.52625 16.62875 2.3125 16.4375 C2.869375 16.293125 3.42625 16.14875 4 16 C4.33 16.99 4.66 17.98 5 19 C2.38660835 21.72701737 0.21507358 22.28530943 -3.4375 22.4375 C-6.77608901 22.32218689 -7.97044978 22.01760438 -10.9375 20.25 C-13.78206465 17.14683856 -14.82909642 15.31026074 -15.375 11.125 C-14.89861498 7.15512486 -13.46959574 5.10463464 -11 2 C-7.3187559 -0.45416273 -4.27738037 -0.59384154 0 0 Z " fill="#3D3764" transform="translate(576,306)"/>
<path d="M0 0 C1.65 0 3.3 0 5 0 C5 11.22 5 22.44 5 34 C3.35 34 1.7 34 0 34 C0 22.78 0 11.56 0 0 Z " fill="#4A466E" transform="translate(673,294)"/>
<path d="M0 0 C0.33 0 0.66 0 1 0 C1.04667433 16.78496003 1.08196638 33.56989987 1.10362434 50.3549099 C1.11394679 58.14808697 1.12802555 65.94122377 1.15087891 73.734375 C1.17078323 80.52510753 1.18370939 87.3158109 1.18817699 94.10657179 C1.19078941 97.70383984 1.19694965 101.30102447 1.21146011 104.89826584 C1.22750907 108.90926601 1.2279816 112.92012019 1.22705078 116.93115234 C1.23424133 118.13020706 1.24143188 119.32926178 1.24884033 120.56465149 C1.246091 121.65282669 1.24334167 122.74100189 1.24050903 123.8621521 C1.24235262 124.81159887 1.24419621 125.76104565 1.24609566 126.73926353 C1 129 1 129 -1 131 C-4.0390625 131.1953125 -4.0390625 131.1953125 -7.625 131.125 C-8.81351562 131.10695312 -10.00203125 131.08890625 -11.2265625 131.0703125 C-12.14179688 131.04710937 -13.05703125 131.02390625 -14 131 C-14 130.01 -14 129.02 -14 128 C-12.20841511 127.97303635 -10.41671527 127.95362083 -8.625 127.9375 C-7.62726563 127.92589844 -6.62953125 127.91429687 -5.6015625 127.90234375 C-3 128 -3 128 -1 129 C-0.67 86.43 -0.34 43.86 0 0 Z " fill="#2F2B57" transform="translate(481,105)"/>
<path d="M0 0 C1.32 0 2.64 0 4 0 C4 1.98 4 3.96 4 6 C5.98 6 7.96 6 10 6 C10 7.32 10 8.64 10 10 C8.02 10 6.04 10 4 10 C4.33 14.62 4.66 19.24 5 24 C6.65 24.33 8.3 24.66 10 25 C10 25.99 10 26.98 10 28 C7.1875 28.625 7.1875 28.625 4 29 C1 27 1 27 0 24 C-0.06970052 21.60509014 -0.08448003 19.20832309 -0.0625 16.8125 C-0.05347656 15.54019531 -0.04445313 14.26789063 -0.03515625 12.95703125 C-0.02355469 11.98121094 -0.01195312 11.00539063 0 10 C-0.99 10 -1.98 10 -3 10 C-3 9.01 -3 8.02 -3 7 C-2.34 6.67 -1.68 6.34 -1 6 C-0.34227572 2.97065509 -0.34227572 2.97065509 0 0 Z " fill="#322D5D" transform="translate(709,300)"/>
<path d="M0 0 C3.0625 0.5 3.0625 0.5 5.4375 2.125 C7.5378727 5.19477548 7.59543835 6.84556561 7.0625 10.5 C6 12.875 6 12.875 4.0625 14.5 C0.5625 15 0.5625 15 -2.9375 14.5 C-5.57519276 12.28774156 -5.88673246 10.90614032 -6.3125 7.5 C-5.73388245 2.8710596 -4.75255112 0.80894487 0 0 Z " fill="#F3F2F7" transform="translate(657.9375,309.5)"/>
<path d="M0 0 C1.875 1 1.875 1 3 3 C3.53967465 6.59783102 3.68523932 9.78179676 1.875 13 C-0.93163039 14.49686954 -2.87757843 14.45535315 -6 14 C-8.83268842 11.63942631 -8.98743809 10.11933812 -9.375 6.4375 C-9 3 -9 3 -7.875 1.0625 C-5.11019567 -0.50422245 -3.11811483 -0.38976435 0 0 Z " fill="#F7F7F9" transform="translate(745,310)"/>
<path d="M0 0 C3.07190573 0.62703694 4.32111862 1.88444207 6.0859375 4.42578125 C8.07228108 7.5046138 8.28786826 9.79102749 8.0859375 13.42578125 C7.7559375 12.10578125 7.4259375 10.78578125 7.0859375 9.42578125 C5.7659375 9.42578125 4.4459375 9.42578125 3.0859375 9.42578125 C-0.58072917 9.42578125 -4.24739583 9.42578125 -7.9140625 9.42578125 C-7.9140625 7.77578125 -7.9140625 6.12578125 -7.9140625 4.42578125 C-8.5740625 4.42578125 -9.2340625 4.42578125 -9.9140625 4.42578125 C-9.9140625 5.08578125 -9.9140625 5.74578125 -9.9140625 6.42578125 C-10.5740625 6.09578125 -11.2340625 5.76578125 -11.9140625 5.42578125 C-8.28316305 0.74074971 -5.71341748 -0.33217544 0 0 Z " fill="#453F6F" transform="translate(549.9140625,305.57421875)"/>
<path d="M0 0 C2.52772364 1.44441351 3.1989653 2.55399627 4.1875 5.25 C2.25 5.8125 2.25 5.8125 0.1875 6.25 C-0.1425 5.92 -0.4725 5.59 -0.8125 5.25 C-2.33178038 5.17820036 -3.85417482 5.16607993 -5.375 5.1875 C-6.20128906 5.19652344 -7.02757812 5.20554687 -7.87890625 5.21484375 C-8.83603516 5.23224609 -8.83603516 5.23224609 -9.8125 5.25 C-9.8125 6.013125 -9.8125 6.77625 -9.8125 7.5625 C-9.8125 9.45833333 -9.8125 11.35416667 -9.8125 13.25 C-10.4725 12.92 -11.1325 12.59 -11.8125 12.25 C-12.8025 12.58 -13.7925 12.91 -14.8125 13.25 C-16.40189347 10.07121306 -16.22826711 7.7543228 -15.8125 4.25 C-11.04353711 -1.2168599 -7.09285681 -1.89142848 0 0 Z " fill="#38325E" transform="translate(637.8125,295.75)"/>
<path d="M0 0 C0.226875 0.598125 0.45375 1.19625 0.6875 1.8125 C3.17785089 5.96308482 7.61572425 7.37155472 12 9 C11.67 10.32 11.34 11.64 11 13 C7.80097361 13.08886184 5.07322544 12.91058531 2 12 C1.01 13.485 1.01 13.485 0 15 C-1.32 15 -2.64 15 -4 15 C-4.02696365 13.20841511 -4.04637917 11.41671527 -4.0625 9.625 C-4.07410156 8.62726563 -4.08570313 7.62953125 -4.09765625 6.6015625 C-4 4 -4 4 -3 2 C-2.34 2 -1.68 2 -1 2 C-0.67 1.34 -0.34 0.68 0 0 Z " fill="#F5F4F9" transform="translate(780,311)"/>
<path d="M0 0 C0.33 0 0.66 0 1 0 C1.0505963 6.37203593 1.08568957 12.7440203 1.10986328 19.11621094 C1.11993789 21.28517594 1.13359798 23.45412731 1.15087891 25.62304688 C1.17506323 28.73571126 1.18646832 31.84819651 1.1953125 34.9609375 C1.20563507 35.934935 1.21595764 36.9089325 1.22659302 37.91244507 C1.22674408 38.81322784 1.22689514 39.71401062 1.22705078 40.64208984 C1.231492 41.43706879 1.23593323 42.23204773 1.24050903 43.05111694 C1 45 1 45 -1 47 C-3.8203125 47.1953125 -3.8203125 47.1953125 -7.125 47.125 C-8.22070312 47.10695312 -9.31640625 47.08890625 -10.4453125 47.0703125 C-11.28835938 47.04710937 -12.13140625 47.02390625 -13 47 C-13 46.34 -13 45.68 -13 45 C-9.04 45 -5.08 45 -1 45 C-1.17273438 43.88625 -1.34546875 42.7725 -1.5234375 41.625 C-2.30567139 34.57107461 -1.93410752 27.50053384 -1.703125 20.42236328 C-1.62430221 17.97836421 -1.55760559 15.5342347 -1.4921875 13.08984375 C-1.44602409 11.53904115 -1.39917461 9.98825879 -1.3515625 8.4375 C-1.33171295 7.7053125 -1.3118634 6.973125 -1.29141235 6.21875 C-1.11532395 1.11532395 -1.11532395 1.11532395 0 0 Z " fill="#312C58" transform="translate(571,189)"/>
<path d="M0 0 C4 4 4 4 5 7 C4.01 7.66 3.02 8.32 2 9 C1.68397858 11.77829399 1.56261576 14.33862785 1.56762695 17.12158203 C1.5574353 17.96068115 1.54724365 18.79978027 1.53674316 19.66430664 C1.50648164 22.44554201 1.49732729 25.22643376 1.48828125 28.0078125 C1.47144429 29.93310706 1.4532954 31.85839057 1.43388367 33.78366089 C1.38627067 38.85695948 1.35653454 43.93021326 1.33044434 49.00366211 C1.30069566 54.17831274 1.2541459 59.35280874 1.20898438 64.52734375 C1.1228228 74.68481514 1.05553485 84.84231825 1 95 C0.67 95 0.34 95 0 95 C0 63.65 0 32.3 0 0 Z " fill="#F1F1FE" transform="translate(399,137)"/>
<path d="M0 0 C1.65 0 3.3 0 5 0 C5 7.26 5 14.52 5 22 C3.35 22 1.7 22 0 22 C0 14.74 0 7.48 0 0 Z " fill="#49436C" transform="translate(723,306)"/>
<path d="M0 0 C0.99 0.33 1.98 0.66 3 1 C3 9.91 3 18.82 3 28 C1.68 28 0.36 28 -1 28 C-1.02891949 23.70834738 -1.04677118 19.41671964 -1.0625 15.125 C-1.07087891 13.90167969 -1.07925781 12.67835938 -1.08789062 11.41796875 C-1.09111328 10.25136719 -1.09433594 9.08476562 -1.09765625 7.8828125 C-1.10289307 6.80402832 -1.10812988 5.72524414 -1.11352539 4.61376953 C-1 2 -1 2 0 0 Z " fill="#302A5C" transform="translate(522,300)"/>
<path d="M0 0 C16.83 0 33.66 0 51 0 C41.17114029 4.91442986 26.96365433 3.14416277 16.1875 3.25 C14.94097656 3.27143066 13.69445312 3.29286133 12.41015625 3.31494141 C10.65058594 3.32146729 10.65058594 3.32146729 8.85546875 3.328125 C7.27221802 3.34214355 7.27221802 3.34214355 5.65698242 3.35644531 C3 3 3 3 0 0 Z " fill="#363262" transform="translate(665,188)"/>
<path d="M0 0 C2.49827963 0.34459029 3.77221286 0.78535443 5.625 2.53125 C7.57813575 6.03801647 7.32176528 9.35286416 7.1875 13.25 C7.17396484 13.99507813 7.16042969 14.74015625 7.14648438 15.5078125 C7.11127204 17.33885416 7.05746851 19.16952169 7 21 C5.68 21 4.36 21 3 21 C2.96261719 20.04738281 2.92523437 19.09476562 2.88671875 18.11328125 C2.82097656 16.85902344 2.75523437 15.60476563 2.6875 14.3125 C2.62949219 13.07113281 2.57148437 11.82976562 2.51171875 10.55078125 C1.98756518 6.91371566 0.95441421 5.03837503 -1 2 C-0.67 1.34 -0.34 0.68 0 0 Z " fill="#383065" transform="translate(598,307)"/>
<path d="M0 0 C1.32 0 2.64 0 4 0 C4 7.26 4 14.52 4 22 C3.01 22 2.02 22 1 22 C-1.14965431 18.77551853 -1.22152284 18.20069035 -0.9765625 14.55078125 C-0.925 13.70322266 -0.8734375 12.85566406 -0.8203125 11.98242188 C-0.72363281 10.66081055 -0.72363281 10.66081055 -0.625 9.3125 C-0.56828125 8.41982422 -0.5115625 7.52714844 -0.453125 6.60742188 C-0.31173702 4.40412587 -0.16034022 2.20198461 0 0 Z " fill="#312C5A" transform="translate(698,306)"/>
<path d="M0 0 C1.65 0 3.3 0 5 0 C5.38909985 1.45463481 5.76088029 2.91391207 6.125 4.375 C6.43824219 5.59316406 6.43824219 5.59316406 6.7578125 6.8359375 C6.83773437 7.55007812 6.91765625 8.26421875 7 9 C6.34 9.66 5.68 10.32 5 11 C10.94 11.33 16.88 11.66 23 12 C23 12.33 23 12.66 23 13 C19.93536601 13.16240455 16.87935726 13.28104814 13.8125 13.375 C12.94818359 13.42527344 12.08386719 13.47554687 11.19335938 13.52734375 C4.94967399 13.67087675 4.94967399 13.67087675 2.2644043 11.77392578 C-0.46735992 8.71623152 -1.01263927 7.26121154 -0.8125 3.125 C-0.544375 2.09375 -0.27625 1.0625 0 0 Z " fill="#534E82" transform="translate(232,224)"/>
<path d="M0 0 C1.30352165 0.24546066 1.30352165 0.24546066 2.63337708 0.49588013 C5.78930589 0.96845055 8.68052082 1.10216978 11.8659668 1.06591797 C13.5625367 1.05128006 13.5625367 1.05128006 15.29338074 1.03634644 C16.49980728 1.02177399 17.70623383 1.00720154 18.94921875 0.9921875 C21.51366799 0.97468174 24.07812136 0.95777246 26.64257812 0.94140625 C30.67858457 0.91035436 34.71439649 0.87570545 38.75024414 0.82861328 C42.64984268 0.78380397 46.54941597 0.76288463 50.44921875 0.7421875 C52.26796761 0.71425613 52.26796761 0.71425613 54.12345886 0.6857605 C55.24504898 0.68230621 56.3666391 0.67885193 57.5222168 0.67529297 C58.51005661 0.66561493 59.49789642 0.65593689 60.51567078 0.64596558 C63 1 63 1 64.84236145 2.39529419 C66 4 66 4 66 6 C65.34 6 64.68 6 64 6 C63.505 5.01 63.505 5.01 63 4 C42.54 3.67 22.08 3.34 1 3 C0.67 2.01 0.34 1.02 0 0 Z " fill="#2E295B" transform="translate(85,202)"/>
<path d="M0 0 C1.32 0 2.64 0 4 0 C5.09587955 4.24551856 4.92865836 7.9592839 4.5625 12.3125 C4.46066406 13.56675781 4.35882812 14.82101562 4.25390625 16.11328125 C4.17011719 17.06589844 4.08632813 18.01851563 4 19 C2.68 19 1.36 19 0 19 C0 12.73 0 6.46 0 0 Z " fill="#332C60" transform="translate(757,309)"/>
<path d="M0 0 C1.86011719 0.03673828 1.86011719 0.03673828 3.7578125 0.07421875 C6.875 0.3125 6.875 0.3125 8.875 1.3125 C9.54581836 7.75235624 7.62930238 11.15033423 3.875 16.3125 C3.545 14.9925 3.215 13.6725 2.875 12.3125 C3.535 12.3125 4.195 12.3125 4.875 12.3125 C5.205 8.6825 5.535 5.0525 5.875 1.3125 C-1.67585586 1.97074832 -1.67585586 1.97074832 -9.125 3.3125 C-9.455 5.2925 -9.785 7.2725 -10.125 9.3125 C-11.115 9.3125 -12.105 9.3125 -13.125 9.3125 C-10.68453404 1.99110211 -7.75141813 -0.23464627 0 0 Z " fill="#3A3661" transform="translate(610.125,98.6875)"/>
<path d="M0 0 C2.24893954 -0.10823773 4.49937575 -0.18569645 6.75 -0.25 C8.00296875 -0.29640625 9.2559375 -0.3428125 10.546875 -0.390625 C14 0 14 0 16.25 1.6875 C18.10034398 4.13259741 19.71354212 6.59611822 21.25 9.25 C21.77078125 10.14203125 22.2915625 11.0340625 22.828125 11.953125 C23.21484375 12.62859375 23.6015625 13.3040625 24 14 C20.80869 14 19.54714915 13.86790938 17 12 C16.25 8.875 16.25 8.875 16 6 C15.34 6 14.68 6 14 6 C14 4.68 14 3.36 14 2 C13.32453125 2.02320312 12.6490625 2.04640625 11.953125 2.0703125 C10.61507812 2.09738281 10.61507812 2.09738281 9.25 2.125 C8.36828125 2.14820312 7.4865625 2.17140625 6.578125 2.1953125 C3.8864142 1.99139502 2.30095026 1.36551721 0 0 Z " fill="#46426B" transform="translate(507,99)"/>
<path d="M0 0 C0.33 0 0.66 0 1 0 C1.66 4.29 2.32 8.58 3 13 C4.65 13.33 6.3 13.66 8 14 C8 14.99 8 15.98 8 17 C5.1875 17.625 5.1875 17.625 2 18 C-1 16 -1 16 -1.75 12.875 C-2.02244938 8.65203469 -1.71753192 5.16168512 -1 1 C-0.67 0.67 -0.34 0.34 0 0 Z " fill="#322E5F" transform="translate(711,311)"/>
<path d="M0 0 C0.66 0 1.32 0 2 0 C3.9829823 1.9829823 4.79378573 3.51218307 6 6 C6.99 7.485 6.99 7.485 8 9 C9.97747122 9.36297936 9.97747122 9.36297936 12.125 9.1875 C13.40375 9.125625 14.6825 9.06375 16 9 C15.67 9.66 15.34 10.32 15 11 C13.02 11 11.04 11 9 11 C8.67 11.66 8.34 12.32 8 13 C6.25 12.875 6.25 12.875 4 12 C1.30729915 8.78371843 0.06229107 6.84092949 -0.25 2.625 C-0.12625 1.325625 -0.12625 1.325625 0 0 Z " fill="#46416A" transform="translate(731,314)"/>
<path d="M0 0 C0.66 0.66 1.32 1.32 2 2 C1.67 2.99 1.34 3.98 1 5 C16.84 5 32.68 5 49 5 C49 5.66 49 6.32 49 7 C32.17 7 15.34 7 -2 7 C-1.34 4.69 -0.68 2.38 0 0 Z " fill="#D8D6EF" transform="translate(667,181)"/>
<path d="M0 0 C5.75 -0.125 5.75 -0.125 8 1 C7.88652381 2.97986082 7.7589065 4.95891598 7.625 6.9375 C7.55539063 8.03964844 7.48578125 9.14179688 7.4140625 10.27734375 C7.27742187 11.17582031 7.14078125 12.07429687 7 13 C6.01 13.495 6.01 13.495 5 14 C4.16235732 12.04350603 3.33000941 10.08474444 2.5 8.125 C2.0359375 7.03445312 1.571875 5.94390625 1.09375 4.8203125 C0 2 0 2 0 0 Z " fill="#39336E" transform="translate(149,208)"/>
<path d="M0 0 C1.6274637 0.61855631 3.25190356 1.24507305 4.875 1.875 C5.77992188 2.22304688 6.68484375 2.57109375 7.6171875 2.9296875 C10 4 10 4 12 6 C12 7.32 12 8.64 12 10 C10.35 10 8.7 10 7 10 C6.67 9.01 6.34 8.02 6 7 C4.16425007 6.0545706 4.16425007 6.0545706 2 5.4375 C-0.1875 4.74609375 -0.1875 4.74609375 -2 4 C-2.33 3.34 -2.66 2.68 -3 2 C-2.01 2 -1.02 2 0 2 C0 1.34 0 0.68 0 0 Z " fill="#433D6C" transform="translate(785,313)"/>
<path d="M0 0 C9.41002278 -0.3690205 9.41002278 -0.3690205 14 2 C14 2.66 14 3.32 14 4 C11.01280273 4.96319215 8.13555235 5.74831687 5 6 C1.9375 4.25 1.9375 4.25 0 2 C0 1.34 0 0.68 0 0 Z " fill="#F0EEF6" transform="translate(542,319)"/>
<path d="M0 0 C3.38230805 1.69115403 3.94308424 5.54976109 5.1875 8.9375 C5.47302734 9.67935547 5.75855469 10.42121094 6.05273438 11.18554688 C6.76641653 13.10085447 7.38998419 15.0491986 8 17 C7.67 17.66 7.34 18.32 7 19 C5.35 17.35 3.7 15.7 2 14 C1.67 14.99 1.34 15.98 1 17 C1.03480469 16.09507813 1.03480469 16.09507813 1.0703125 15.171875 C1.08835937 14.37265625 1.10640625 13.5734375 1.125 12.75 C1.14820313 11.96109375 1.17140625 11.1721875 1.1953125 10.359375 C0.98192406 7.7816426 0.18981387 6.26448446 -1 4 C-0.625 1.75 -0.625 1.75 0 0 Z " fill="#423D6B" transform="translate(704,106)"/>
<path d="M0 0 C6.27 0 12.54 0 19 0 C19.33 0.66 19.66 1.32 20 2 C19.34 2.66 18.68 3.32 18 4 C17.67 3.67 17.34 3.34 17 3 C15.65732587 2.91368126 14.31025678 2.89293527 12.96484375 2.90234375 C12.15595703 2.90556641 11.34707031 2.90878906 10.51367188 2.91210938 C9.2384668 2.92467773 9.2384668 2.92467773 7.9375 2.9375 C7.08349609 2.94201172 6.22949219 2.94652344 5.34960938 2.95117188 C3.23304337 2.96299627 1.11651315 2.98093231 -1 3 C-0.67 2.01 -0.34 1.02 0 0 Z " fill="#413D67" transform="translate(107,99)"/>
<path d="M0 0 C1.32 0.66 2.64 1.32 4 2 C4 3.32 4 4.64 4 6 C-1.28 6 -6.56 6 -12 6 C-12 5.01 -12 4.02 -12 3 C-8.04 3 -4.08 3 0 3 C0 2.01 0 1.02 0 0 Z " fill="#302A55" transform="translate(553,313)"/>
<path d="M0 0 C5.61 0.33 11.22 0.66 17 1 C16.67 1.99 16.34 2.98 16 4 C11.05 4 6.1 4 1 4 C0.67 2.68 0.34 1.36 0 0 Z " fill="#504E74" transform="translate(160,233)"/>
<path d="M0 0 C1.28132813 0.00902344 2.56265625 0.01804687 3.8828125 0.02734375 C4.87023437 0.03894531 5.85765625 0.05054687 6.875 0.0625 C7.205 1.0525 7.535 2.0425 7.875 3.0625 C7.215 3.0625 6.555 3.0625 5.875 3.0625 C5.545 3.7225 5.215 4.3825 4.875 5.0625 C3.885 4.4025 2.895 3.7425 1.875 3.0625 C-0.4681213 3.31811323 -2.80343403 3.65520772 -5.125 4.0625 C-6.445 4.0625 -7.765 4.0625 -9.125 4.0625 C-9.125 3.0725 -9.125 2.0825 -9.125 1.0625 C-6.12186252 -0.43906874 -3.33432478 -0.03031204 0 0 Z " fill="#3D3B65" transform="translate(294.125,98.9375)"/>
<path d="M0 0 C0.33 0 0.66 0 1 0 C1.12375 0.78375 1.2475 1.5675 1.375 2.375 C1.79117993 5.14057822 1.79117993 5.14057822 4 7 C4.125 10.125 4.125 10.125 4 13 C1.23735711 13.59732819 -1.16032769 14 -4 14 C-3.52188823 12.22888156 -3.0424722 10.45811517 -2.5625 8.6875 C-2.29566406 7.70136719 -2.02882813 6.71523437 -1.75390625 5.69921875 C-1.21920575 3.78482474 -0.62855462 1.88566385 0 0 Z " fill="#3A356B" transform="translate(265,155)"/>
<path d="M0 0 C4.62 0 9.24 0 14 0 C14.33 1.32 14.66 2.64 15 4 C9.72 3.67 4.44 3.34 -1 3 C-0.67 2.01 -0.34 1.02 0 0 Z " fill="#3B3866" transform="translate(191,99)"/>
<path d="M0 0 C0.99 0.495 0.99 0.495 2 1 C6.14503661 1.24787017 6.14503661 1.24787017 10 0 C10.66 0.66 11.32 1.32 12 2 C11.625 4.125 11.625 4.125 11 6 C7.66666667 6 4.33333333 6 1 6 C0 3 0 3 0 0 Z " fill="#3F3A68" transform="translate(687,322)"/>
<path d="M0 0 C5.5 -0.36666667 5.5 -0.36666667 7.875 1.375 C9 3 9 3 9 5 C5.37 5 1.74 5 -2 5 C-1.34 3.35 -0.68 1.7 0 0 Z " fill="#F2F2F9" transform="translate(544,310)"/>
<path d="M0 0 C7.26 0 14.52 0 22 0 C22 0.99 22 1.98 22 3 C17.25 3.125 17.25 3.125 15 2 C12.30986661 1.81295596 9.70313823 1.91418609 7 2 C6.67 2.33 6.34 2.66 6 3 C4.00041636 3.04080783 1.99954746 3.04254356 0 3 C0 2.01 0 1.02 0 0 Z " fill="#322C57" transform="translate(512,296)"/>
<path d="M0 0 C3.19638292 3.19638292 4.16411468 5.38789011 5.75 9.5625 C6.19859375 10.71878906 6.6471875 11.87507812 7.109375 13.06640625 C8 16 8 16 7 18 C5 17 5 17 3.875 13.9375 C3.58625 12.968125 3.2975 11.99875 3 11 C2.34 11 1.68 11 1 11 C0.67 7.37 0.34 3.74 0 0 Z " fill="#44416C" transform="translate(719,146)"/>
<path d="M0 0 C0.66 0.99 1.32 1.98 2 3 C1.125 6.6875 1.125 6.6875 0 10 C-0.66 10 -1.32 10 -2 10 C-2.33 10.66 -2.66 11.32 -3 12 C-3.99 12 -4.98 12 -6 12 C-5.54300722 6.97307937 -3.00758252 3.85103739 0 0 Z " fill="#2E2661" transform="translate(588,122)"/>
<path d="M0 0 C1.98 1.32 3.96 2.64 6 4 C4.25 8.875 4.25 8.875 2 10 C1.6596875 9.071875 1.6596875 9.071875 1.3125 8.125 C-0.37929835 5.38589791 -1.99244161 4.94975528 -5 4 C-3.35 2.68 -1.7 1.36 0 0 Z " fill="#3D376B" transform="translate(637,310)"/>
<path d="M0 0 C0.33 0 0.66 0 1 0 C1.36170213 5.42553191 1.36170213 5.42553191 -0.0625 7.6875 C-3.03981788 9.70439276 -5.64825295 9.28491047 -9.1875 9.1875 C-10.45980469 9.16042969 -11.73210937 9.13335937 -13.04296875 9.10546875 C-14.50669922 9.05326172 -14.50669922 9.05326172 -16 9 C-16.33 8.34 -16.66 7.68 -17 7 C-16.00097656 6.95101562 -15.00195312 6.90203125 -13.97265625 6.8515625 C-12.68230469 6.77679688 -11.39195312 6.70203125 -10.0625 6.625 C-8.77472656 6.55539063 -7.48695313 6.48578125 -6.16015625 6.4140625 C-5.11730469 6.27742187 -4.07445312 6.14078125 -3 6 C-2.67 5.34 -2.34 4.68 -2 4 C-1.34 4 -0.68 4 0 4 C0 2.68 0 1.36 0 0 Z " fill="#575677" transform="translate(398,228)"/>
<path d="M0 0 C0.66 0.33 1.32 0.66 2 1 C1.9278125 1.61488281 1.855625 2.22976562 1.78125 2.86328125 C1.6884375 3.67152344 1.595625 4.47976562 1.5 5.3125 C1.4071875 6.11300781 1.314375 6.91351563 1.21875 7.73828125 C0.95186537 10.11896555 0.95186537 10.11896555 1 13 C5.29 13 9.58 13 14 13 C14 13.33 14 13.66 14 14 C11.70858714 14.05384521 9.41681812 14.09272087 7.125 14.125 C5.21074219 14.15980469 5.21074219 14.15980469 3.2578125 14.1953125 C0 14 0 14 -2 12 C-2.34358086 7.44755354 -1.99475484 4.11418186 0 0 Z " fill="#5F5C7E" transform="translate(57,223)"/>
<path d="M0 0 C1 3.875 1 3.875 1 5 C1.33 5 1.66 5 2 5 C2.20086443 8.71599191 2.1519437 9.77208445 0 13 C-0.99 13 -1.98 13 -3 13 C-3.93045933 10.44855176 -4.08564091 9.25993522 -3.22265625 6.640625 C-2.83980469 5.85171875 -2.45695312 5.0628125 -2.0625 4.25 C-1.68222656 3.45078125 -1.30195312 2.6515625 -0.91015625 1.828125 C-0.60980469 1.22484375 -0.30945313 0.6215625 0 0 Z " fill="#39336B" transform="translate(75,178)"/>
<path d="M0 0 C1.175625 0.5259375 1.175625 0.5259375 2.375 1.0625 C3.674375 1.5265625 3.674375 1.5265625 5 2 C5.66 1.67 6.32 1.34 7 1 C7 3.97 7 6.94 7 10 C7.66 10.33 8.32 10.66 9 11 C8.01 11.33 7.02 11.66 6 12 C4.99466333 10.37829621 3.99588093 8.75252763 3 7.125 C2.443125 6.22007812 1.88625 5.31515625 1.3125 4.3828125 C0 2 0 2 0 0 Z " fill="#3B3467" transform="translate(533,153)"/>
<path d="M0 0 C1.32 0.33 2.64 0.66 4 1 C4 1.66 4 2.32 4 3 C4.99 2.67 5.98 2.34 7 2 C7.66 3.98 8.32 5.96 9 8 C8.01 8.99 7.02 9.98 6 11 C4.99735282 9.35577799 3.99794896 7.70957779 3 6.0625 C2.443125 5.14597656 1.88625 4.22945312 1.3125 3.28515625 C0 1 0 1 0 0 Z " fill="#3A376A" transform="translate(404,143)"/>
<path d="M0 0 C0.33 0 0.66 0 1 0 C1.33 1.65 1.66 3.3 2 5 C2.66 4.67 3.32 4.34 4 4 C4 6.97 4 9.94 4 13 C2.68 13 1.36 13 0 13 C0 8.71 0 4.42 0 0 Z " fill="#312959" transform="translate(601,315)"/>
<path d="M0 0 C1.98 0 3.96 0 6 0 C5.01 0.495 5.01 0.495 4 1 C4 1.99 4 2.98 4 4 C3.01 4 2.02 4 1 4 C1.09539063 5.13179688 1.19078125 6.26359375 1.2890625 7.4296875 C1.40159885 8.91141612 1.51354758 10.39318945 1.625 11.875 C1.68945312 12.62136719 1.75390625 13.36773437 1.8203125 14.13671875 C1.96087365 16.0870047 1.98759849 18.04469467 2 20 C1.34 20.66 0.68 21.32 0 22 C0 14.74 0 7.48 0 0 Z " fill="#E6E3F8" transform="translate(702,306)"/>
<path d="M0 0 C0.33 0.66 0.66 1.32 1 2 C0.00390625 3.9453125 0.00390625 3.9453125 -1.4375 6.125 C-1.91058594 6.84945313 -2.38367188 7.57390625 -2.87109375 8.3203125 C-3.24363281 8.87460937 -3.61617187 9.42890625 -4 10 C-4.99 9.01 -5.98 8.02 -7 7 C-6.3125 4.625 -6.3125 4.625 -5 2 C-2.375 0.6875 -2.375 0.6875 0 0 Z " fill="#352E5D" transform="translate(739,307)"/>
<path d="M0 0 C1.26328125 0.03609375 2.5265625 0.0721875 3.828125 0.109375 C5.27445313 0.17898437 5.27445313 0.17898437 6.75 0.25 C6.75 0.58 6.75 0.91 6.75 1.25 C6.01394531 1.31058594 5.27789063 1.37117188 4.51953125 1.43359375 C3.05580078 1.55927734 3.05580078 1.55927734 1.5625 1.6875 C0.59957031 1.76871094 -0.36335937 1.84992188 -1.35546875 1.93359375 C-4.03649602 2.22666151 -6.6162986 2.67703754 -9.25 3.25 C-9.58 5.23 -9.91 7.21 -10.25 9.25 C-11.24 9.25 -12.23 9.25 -13.25 9.25 C-10.77911031 1.83733094 -7.83047461 -0.29001758 0 0 Z " fill="#4C486C" transform="translate(610.25,98.75)"/>
<path d="M0 0 C0.99 0.33 1.98 0.66 3 1 C3.33 3.64 3.66 6.28 4 9 C3.01 9.33 2.02 9.66 1 10 C1 9.34 1 8.68 1 8 C0.34 8 -0.32 8 -1 8 C-1.04241723 5.66705225 -1.04092937 3.33297433 -1 1 C-0.67 0.67 -0.34 0.34 0 0 Z " fill="#322C5A" transform="translate(649,313)"/>
<path d="M0 0 C0.99 0 1.98 0 3 0 C1.125 3.875 1.125 3.875 0 5 C-1.51928038 5.07179964 -3.04167482 5.08392007 -4.5625 5.0625 C-5.38878906 5.05347656 -6.21507812 5.04445313 -7.06640625 5.03515625 C-7.70449219 5.02355469 -8.34257813 5.01195312 -9 5 C-9.33 4.34 -9.66 3.68 -10 3 C-9.04287109 2.80083984 -9.04287109 2.80083984 -8.06640625 2.59765625 C-7.24011719 2.42105469 -6.41382813 2.24445313 -5.5625 2.0625 C-4.73878906 1.88847656 -3.91507813 1.71445312 -3.06640625 1.53515625 C-1.02338796 1.19247006 -1.02338796 1.19247006 0 0 Z " fill="#332E59" transform="translate(747,323)"/>
<path d="M0 0 C2.3125 -0.25 2.3125 -0.25 5 0 C6.8125 2 6.8125 2 8 4 C7.67 4.66 7.34 5.32 7 6 C4.69 5.34 2.38 4.68 0 4 C0 2.68 0 1.36 0 0 Z " fill="#EEEDF8" transform="translate(786,310)"/>
<path d="M0 0 C6.4 -0.36923077 6.4 -0.36923077 9.4375 1.5 C9.953125 1.995 10.46875 2.49 11 3 C10.67 3.99 10.34 4.98 10 6 C5 4 5 4 0 2 C0 1.34 0 0.68 0 0 Z " fill="#352E58" transform="translate(569,306)"/>
<path d="M0 0 C0.25 3.3125 0.25 3.3125 0 7 C-2 8.9375 -2 8.9375 -4 10 C-4.66 9.67 -5.32 9.34 -6 9 C-5.835 8.05125 -5.67 7.1025 -5.5 6.125 C-4.9473365 3.19831099 -4.9473365 3.19831099 -5 1 C-1.125 0 -1.125 0 0 0 Z " fill="#DEDFEA" transform="translate(648,314)"/>
<path d="M0 0 C0.125 3.375 0.125 3.375 0 7 C-2 9 -2 9 -5.2578125 9.1953125 C-6.53398438 9.17210937 -7.81015625 9.14890625 -9.125 9.125 C-11.04699219 9.09792969 -11.04699219 9.09792969 -13.0078125 9.0703125 C-14.48894531 9.03550781 -14.48894531 9.03550781 -16 9 C-16 8.67 -16 8.34 -16 8 C-10.06 7.505 -10.06 7.505 -4 7 C-3.87625 6.030625 -3.7525 5.06125 -3.625 4.0625 C-3.41875 3.051875 -3.2125 2.04125 -3 1 C-1 0 -1 0 0 0 Z " fill="#5F5D83" transform="translate(752,228)"/>
<path d="M0 0 C0.66 0 1.32 0 2 0 C2 0.66 2 1.32 2 2 C2.53625 1.79375 3.0725 1.5875 3.625 1.375 C6.83267308 0.8685253 9.01317066 1.84599775 12 3 C10.35 4.32 8.7 5.64 7 7 C3.42895561 5.12050295 1.45255699 3.82946843 0 0 Z " fill="#48456A" transform="translate(648,321)"/>
<path d="M0 0 C1.32 0.33 2.64 0.66 4 1 C4.99 1 5.98 1 7 1 C6.67 1.33 6.34 1.66 6 2 C5.855625 3.155 5.71125 4.31 5.5625 5.5 C5.376875 6.655 5.19125 7.81 5 9 C4.01 9.495 4.01 9.495 3 10 C2.01 6.7 1.02 3.4 0 0 Z " fill="#393366" transform="translate(126,144)"/>
<path d="M0 0 C0.33 0 0.66 0 1 0 C1.0825 0.78375 1.165 1.5675 1.25 2.375 C1.71427276 5.07262234 1.71427276 5.07262234 3.6875 6.125 C6.42208482 7.15970777 8.83675041 7.41691074 11.75 7.625 C12.73484375 7.69976562 13.7196875 7.77453125 14.734375 7.8515625 C15.48203125 7.90054688 16.2296875 7.94953125 17 8 C17 8.33 17 8.66 17 9 C14.54137599 9.05383848 12.0839245 9.09359038 9.625 9.125 C8.57699219 9.15013672 8.57699219 9.15013672 7.5078125 9.17578125 C5.67102514 9.19344267 3.83398037 9.10303261 2 9 C0 7 0 7 -0.125 3.375 C-0.08375 2.26125 -0.0425 1.1475 0 0 Z " fill="#6B688A" transform="translate(629,228)"/>
<path d="M0 0 C0.66 0 1.32 0 2 0 C2.53154742 1.60064843 3.04988353 3.20568874 3.5625 4.8125 C3.85253906 5.70582031 4.14257812 6.59914063 4.44140625 7.51953125 C5 10 5 10 4 13 C3.13083113 11.59248779 2.28014851 10.1735479 1.4375 8.75 C0.72400391 7.56664063 0.72400391 7.56664063 -0.00390625 6.359375 C-1.13022151 3.69155375 -1.0169313 2.65498232 0 0 Z " fill="#413C64" transform="translate(505,101)"/>
<path d="M0 0 C0.66 0 1.32 0 2 0 C2 3.63 2 7.26 2 11 C1.01 11 0.02 11 -1 11 C-1.0270043 9.54176788 -1.04639787 8.08339325 -1.0625 6.625 C-1.07410156 5.81289063 -1.08570313 5.00078125 -1.09765625 4.1640625 C-1 2 -1 2 0 0 Z " fill="#302A59" transform="translate(587,317)"/>
<path d="M0 0 C0.5775 0.804375 1.155 1.60875 1.75 2.4375 C5.73511864 6.55042128 11.62799777 5.90575435 17 6 C17 6.33 17 6.66 17 7 C14.54137599 7.05383848 12.0839245 7.09359038 9.625 7.125 C8.57699219 7.15013672 8.57699219 7.15013672 7.5078125 7.17578125 C5.67102514 7.19344267 3.83398037 7.10303261 2 7 C0 5 0 5 -0.125 2.375 C-0.08375 1.59125 -0.0425 0.8075 0 0 Z " fill="#666187" transform="translate(327,230)"/>
<path d="M0 0 C2.24956302 2.24956302 3.00510965 4.06323263 4.1875 7 C4.55230469 7.886875 4.91710937 8.77375 5.29296875 9.6875 C6 12 6 12 5 14 C1.53886753 12.26943376 0.28074195 8.53033533 -1 5 C-0.75 2 -0.75 2 0 0 Z " fill="#403B68" transform="translate(740,200)"/>
<path d="M0 0 C0.33 0 0.66 0 1 0 C1.92017937 8.77578475 1.92017937 8.77578475 -0.3359375 11.77734375 C-2 13.125 -2 13.125 -5 15 C-1.92482916 4.44191344 -1.92482916 4.44191344 0 0 Z " fill="#434068" transform="translate(661,145)"/>
<path d="M0 0 C0.66 0.33 1.32 0.66 2 1 C0.41078475 6.36095277 -1.18972938 11.70843973 -3 17 C-4.3582089 13.26039816 -3.62928896 10.59470752 -2.625 6.8125 C-2.34914063 5.74644531 -2.07328125 4.68039063 -1.7890625 3.58203125 C-1 1 -1 1 0 0 Z " fill="#3C3862" transform="translate(297,117)"/>
<path d="M0 0 C1.32 0 2.64 0 4 0 C4.14285714 7.42857143 4.14285714 7.42857143 3 11 C2.34 11 1.68 11 1 11 C0.67 7.37 0.34 3.74 0 0 Z " fill="#312A62" transform="translate(664,313)"/>
<path d="M0 0 C1.1446875 0.2475 1.1446875 0.2475 2.3125 0.5 C5.03596236 1.09145396 5.03596236 1.09145396 8 1 C7.67 1.33 7.34 1.66 7 2 C8.32 2.66 9.64 3.32 11 4 C6.545 4.495 6.545 4.495 2 5 C2 4.34 2 3.68 2 3 C1.34 3 0.68 3 0 3 C0 2.01 0 1.02 0 0 Z " fill="#46406B" transform="translate(757,306)"/>
<path d="M0 0 C0.66 0 1.32 0 2 0 C2 0.99 2 1.98 2 3 C2.66 3 3.32 3 4 3 C4.33 4.98 4.66 6.96 5 9 C0.125 7.125 0.125 7.125 -1 6 C-1.125 3.5 -1.125 3.5 -1 1 C-0.67 0.67 -0.34 0.34 0 0 Z " fill="#ECEBF5" transform="translate(628,300)"/>
<path d="M0 0 C2.64 0 5.28 0 8 0 C8.66 1.32 9.32 2.64 10 4 C8.375 4.75 8.375 4.75 6 5 C2.75 3.125 2.75 3.125 0 1 C0 0.67 0 0.34 0 0 Z " fill="#3A3461" transform="translate(632,297)"/>
<path d="M0 0 C0.66 0.66 1.32 1.32 2 2 C0.68 5.63 -0.64 9.26 -2 13 C-2.66 12.67 -3.32 12.34 -4 12 C-3.67 8.7 -3.34 5.4 -3 2 C-2.34 2 -1.68 2 -1 2 C-0.67 1.34 -0.34 0.68 0 0 Z " fill="#363260" transform="translate(99,160)"/>
<path d="M0 0 C0.66 0.66 1.32 1.32 2 2 C0.35 6.95 -1.3 11.9 -3 17 C-3.33 17 -3.66 17 -4 17 C-3.58411954 10.80481527 -2.39748106 5.73310689 0 0 Z " fill="#3B3861" transform="translate(286,149)"/>
<path d="M0 0 C0.66 0.66 1.32 1.32 2 2 C1.625 5.125 1.625 5.125 1 8 C-0.65 8.33 -2.3 8.66 -4 9 C-2.80100302 5.9168649 -1.52299523 2.93720508 0 0 Z " fill="#312F58" transform="translate(642,315)"/>
<path d="M0 0 C2 1.375 2 1.375 4 4 C4.35791096 7.3580469 4.23115823 10.63536357 4 14 C3.01 14.495 3.01 14.495 2 15 C2.33 11.7 2.66 8.4 3 5 C2.21625 4.87625 1.4325 4.7525 0.625 4.625 C-2 4 -2 4 -4 2 C-2.68 2 -1.36 2 0 2 C0 1.34 0 0.68 0 0 Z " fill="#443F68" transform="translate(665,308)"/>
<path d="M0 0 C0.99 0 1.98 0 3 0 C3 2.97 3 5.94 3 9 C2.34 9 1.68 9 1 9 C0.67 9.66 0.34 10.32 0 11 C0 7.37 0 3.74 0 0 Z " fill="#2F2A5A" transform="translate(586,295)"/>
<path d="M0 0 C7.42857143 -0.28571429 7.42857143 -0.28571429 11 2 C9 3 9 3 5 3 C5.33 3.66 5.66 4.32 6 5 C4.35 5 2.7 5 1 5 C0.67 3.35 0.34 1.7 0 0 Z " fill="#514C75" transform="translate(628,295)"/>
<path d="M0 0 C0.66 0.33 1.32 0.66 2 1 C2.29296875 7.0546875 2.29296875 7.0546875 2 9 C1.01 9.66 0.02 10.32 -1 11 C-1.66 10.67 -2.32 10.34 -3 10 C-2.01 6.7 -1.02 3.4 0 0 Z " fill="#3C3966" transform="translate(633,218)"/>
<path d="M0 0 C1.61725534 3.00950123 2.67582623 5.97103608 3.625 9.25 C3.88539063 10.14203125 4.14578125 11.0340625 4.4140625 11.953125 C4.60742188 12.62859375 4.80078125 13.3040625 5 14 C3.66666667 14 2.33333333 14 1 14 C0.63794536 12.04310963 0.28558579 10.08442332 -0.0625 8.125 C-0.25972656 7.03445312 -0.45695313 5.94390625 -0.66015625 4.8203125 C-1 2 -1 2 0 0 Z " fill="#4C4871" transform="translate(218,132)"/>
<path d="M0 0 C2 2 2 2 2.1953125 4.3828125 C2.17210937 5.28773438 2.14890625 6.19265625 2.125 7.125 C2.10695313 8.03507812 2.08890625 8.94515625 2.0703125 9.8828125 C2.03550781 10.93082031 2.03550781 10.93082031 2 12 C1.01 12 0.02 12 -1 12 C-1.08159574 7.83861737 -0.98248524 4.0527516 0 0 Z " fill="#302B52" transform="translate(773,316)"/>
<path d="M0 0 C2.76223278 2.76223278 2.57856291 5.20706617 3 9 C0.525 8.01 0.525 8.01 -2 7 C-1.34 4.69 -0.68 2.38 0 0 Z " fill="#3E386B" transform="translate(651,171)"/>
<path d="M0 0 C0.99 0.66 1.98 1.32 3 2 C2.34 3.65 1.68 5.3 1 7 C0.34 7 -0.32 7 -1 7 C-1.66 8.65 -2.32 10.3 -3 12 C-4 10 -4 10 -3.22265625 7.6171875 C-2.83980469 6.71226563 -2.45695312 5.80734375 -2.0625 4.875 C-1.68222656 3.96492188 -1.30195312 3.05484375 -0.91015625 2.1171875 C-0.60980469 1.41851562 -0.30945313 0.71984375 0 0 Z " fill="#3E3A67" transform="translate(99,114)"/>
<path d="M0 0 C3.3125 -0.3125 3.3125 -0.3125 7 0 C8.9375 2.5 8.9375 2.5 10 5 C8.51793505 4.745504 7.03931385 4.47088238 5.5625 4.1875 C4.73878906 4.03667969 3.91507813 3.88585937 3.06640625 3.73046875 C2.38449219 3.48941406 1.70257812 3.24835938 1 3 C0.67 2.01 0.34 1.02 0 0 Z " fill="#322C5A" transform="translate(656,306)"/>
<path d="M0 0 C2.34601486 2.13274079 3.86264449 4.02537789 5 7 C5.125 9.75 5.125 9.75 5 12 C4.938125 11.38125 4.87625 10.7625 4.8125 10.125 C4.171081 7.72238859 4.171081 7.72238859 1.4375 6.75 C0.633125 6.5025 -0.17125 6.255 -1 6 C-0.67 4.02 -0.34 2.04 0 0 Z " fill="#4A456B" transform="translate(553,307)"/>
<path d="M0 0 C1.04449911 3.13349732 0.93423645 3.98968256 0 7 C-1.65 7 -3.3 7 -5 7 C-4.75 4.625 -4.75 4.625 -4 2 C-1.9375 0.6875 -1.9375 0.6875 0 0 Z " fill="#372F74" transform="translate(214,121)"/>
<path d="M0 0 C0.66 0 1.32 0 2 0 C1.01 3.3 0.02 6.6 -1 10 C-1.99 9.67 -2.98 9.34 -4 9 C-3.67 7.68 -3.34 6.36 -3 5 C-2.34 5 -1.68 5 -1 5 C-0.67 3.35 -0.34 1.7 0 0 Z " fill="#3D3965" transform="translate(265,210)"/>
<path d="M0 0 C0.33 0.99 0.66 1.98 1 3 C1.66 3 2.32 3 3 3 C2.67 5.31 2.34 7.62 2 10 C0.68 9.01 -0.64 8.02 -2 7 C-1.125 2.25 -1.125 2.25 0 0 Z " fill="#3B3770" transform="translate(250,200)"/>
<path d="M0 0 C0.66 0 1.32 0 2 0 C2.99 2.97 3.98 5.94 5 9 C3.68 8.67 2.36 8.34 1 8 C-0.3125 5.0625 -0.3125 5.0625 -1 2 C-0.67 1.34 -0.34 0.68 0 0 Z " fill="#46436E" transform="translate(729,173)"/>
<path d="M0 0 C2 1 2 1 3.1875 3.3125 C4.03624754 6.11989571 3.99928333 7.301935 3 10 C0.9375 7.8125 0.9375 7.8125 -1 5 C-0.75 2.1875 -0.75 2.1875 0 0 Z " fill="#43416C" transform="translate(139,130)"/>
<path d="M0 0 C1.55913346 3.11826692 0.66585225 5.67073874 0 9 C-0.99 9.495 -0.99 9.495 -2 10 C-2.66 7.69 -3.32 5.38 -4 3 C-2.68 2.01 -1.36 1.02 0 0 Z " fill="#3A346B" transform="translate(699,128)"/>
<path d="M0 0 C1.32 0.33 2.64 0.66 4 1 C4 2.98 4 4.96 4 7 C3.01 7.33 2.02 7.66 1 8 C0.67 5.36 0.34 2.72 0 0 Z " fill="#322D5E" transform="translate(749,314)"/>
<path d="M0 0 C1.32 0 2.64 0 4 0 C3 3 3 3 2 4 C1.76636119 5.84891946 1.58696365 7.70488031 1.4375 9.5625 C1.35371094 10.57441406 1.26992188 11.58632813 1.18359375 12.62890625 C1.12300781 13.41136719 1.06242188 14.19382812 1 15 C0.67 15 0.34 15 0 15 C0 10.05 0 5.1 0 0 Z " fill="#302B50" transform="translate(683,306)"/>
<path d="M0 0 C0.99 0.66 1.98 1.32 3 2 C0.03 4.475 0.03 4.475 -3 7 C-3.66 5.68 -4.32 4.36 -5 3 C-3.35 2.01 -1.7 1.02 0 0 Z " fill="#F1F0F5" transform="translate(565,305)"/>
<path d="M0 0 C1.4606285 2.64738916 2 3.89448334 2 7 C1.34 6.67 0.68 6.34 0 6 C-0.99 6.33 -1.98 6.66 -3 7 C-3.33 5.68 -3.66 4.36 -4 3 C-2.68 2.01 -1.36 1.02 0 0 Z " fill="#45406F" transform="translate(626,302)"/>
<path d="M0 0 C0.66 0.33 1.32 0.66 2 1 C0.68 4.3 -0.64 7.6 -2 11 C-3.00058075 7.99825776 -3.31241431 6.12414314 -3 3 C-1.5 1.1875 -1.5 1.1875 0 0 Z " fill="#3C3966" transform="translate(104,148)"/>
<path d="M0 0 C2.52588702 2.36292656 3.88820837 3.66462511 5 7 C3.35 7.33 1.7 7.66 0 8 C0 5.36 0 2.72 0 0 Z " fill="#E7E9F5" transform="translate(399,137)"/>
<path d="M0 0 C1.65 0 3.3 0 5 0 C4.67 1.65 4.34 3.3 4 5 C2.68 4.67 1.36 4.34 0 4 C0 2.68 0 1.36 0 0 Z " fill="#3C365B" transform="translate(723,296)"/>
<path d="M0 0 C0.99 0.33 1.98 0.66 3 1 C3.3721042 2.32303717 3.70630173 3.65737935 4 5 C4.66 5.33 5.32 5.66 6 6 C4.68 6.33 3.36 6.66 2 7 C0.4375 4.625 0.4375 4.625 -1 2 C-0.67 1.34 -0.34 0.68 0 0 Z " fill="#363464" transform="translate(557,160)"/>
<path d="M0 0 C2.33294775 -0.04241723 4.66702567 -0.04092937 7 0 C8 1 8 1 8.0625 3.5625 C8.041875 4.366875 8.02125 5.17125 8 6 C6.66402348 5.19185349 5.331275 4.37836819 4 3.5625 C3.2575 3.11003906 2.515 2.65757812 1.75 2.19140625 C1.1725 1.79824219 0.595 1.40507812 0 1 C0 0.67 0 0.34 0 0 Z " fill="#342E5B" transform="translate(545,306)"/>
<path d="M0 0 C5.28 0.66 10.56 1.32 16 2 C16 2.33 16 2.66 16 3 C10.72 3 5.44 3 0 3 C0 2.01 0 1.02 0 0 Z " fill="#2E2B58" transform="translate(237,233)"/>
<path d="M0 0 C2.25245881 2.68841859 3.88213958 4.64641875 5 8 C4.34 8.66 3.68 9.32 3 10 C0.96564469 6.27034861 0 4.33094958 0 0 Z " fill="#423D6B" transform="translate(448,178)"/>
<path d="M0 0 C2.27795022 2.27795022 3.05219877 3.93787293 4 7 C3.625 9.3125 3.625 9.3125 3 11 C0.60236815 8.60236815 0.65719414 7.66726502 0.375 4.375 C0.30023438 3.55773437 0.22546875 2.74046875 0.1484375 1.8984375 C0.09945312 1.27195313 0.05046875 0.64546875 0 0 Z " fill="#47446C" transform="translate(155,171)"/>
<path d="M0 0 C2.7558573 4.13378595 3.10756445 6.05203546 3 11 C2.34 11 1.68 11 1 11 C0.4254048 7.26513121 0 3.78706732 0 0 Z " fill="#46426C" transform="translate(226,156)"/>
<path d="M0 0 C3 1 3 1 4.16796875 2.84765625 C4.50441406 3.57855469 4.84085938 4.30945313 5.1875 5.0625 C5.53167969 5.79597656 5.87585938 6.52945313 6.23046875 7.28515625 C6.48441406 7.85105469 6.73835937 8.41695312 7 9 C3.23408112 7.31934199 1.8620366 5.72407321 0 2 C0 1.34 0 0.68 0 0 Z " fill="#403A68" transform="translate(548,145)"/>
<path d="M0 0 C0.99 0 1.98 0 3 0 C3.66 2.64 4.32 5.28 5 8 C3.66666667 8 2.33333333 8 1 8 C0.67 5.36 0.34 2.72 0 0 Z " fill="#46426C" transform="translate(209,112)"/>
<path d="M0 0 C1.32 0 2.64 0 4 0 C4 0.66 4 1.32 4 2 C5.65 1.34 7.3 0.68 9 0 C9 0.99 9 1.98 9 3 C6.75 3.75 6.75 3.75 4 4 C1.6875 2.0625 1.6875 2.0625 0 0 Z " fill="#E0DFED" transform="translate(567,321)"/>
<path d="M0 0 C1.78409802 3.06246747 2.22880021 5.22079273 2.125 8.75 C2.10695312 9.54921875 2.08890625 10.3484375 2.0703125 11.171875 C2.03550781 12.07679688 2.03550781 12.07679688 2 13 C-0.18975773 9.71536341 -0.99806563 6.79303725 -2 3 C-1.34 3 -0.68 3 0 3 C0 2.01 0 1.02 0 0 Z " fill="#393565" transform="translate(219,185)"/>
<path d="M0 0 C0.99 0 1.98 0 3 0 C3.66 1.98 4.32 3.96 5 6 C4.34 6 3.68 6 3 6 C2.67 6.66 2.34 7.32 2 8 C1.34 5.36 0.68 2.72 0 0 Z " fill="#363362" transform="translate(209,164)"/>
<path d="M0 0 C0.33 0 0.66 0 1 0 C0.67 2.31 0.34 4.62 0 7 C-0.99 7 -1.98 7 -3 7 C-3 7.66 -3 8.32 -3 9 C-3.66 8.67 -4.32 8.34 -5 8 C-4.19185349 6.66402348 -3.37836819 5.331275 -2.5625 4 C-2.11003906 3.2575 -1.65757812 2.515 -1.19140625 1.75 C-0.79824219 1.1725 -0.40507813 0.595 0 0 Z " fill="#48426E" transform="translate(587,123)"/>
<path d="M0 0 C2.16874252 0.50603992 3.99967627 0.99983813 6 2 C6 2.99 6 3.98 6 5 C5.34 5 4.68 5 4 5 C3.34 5.66 2.68 6.32 2 7 C1.34 4.69 0.68 2.38 0 0 Z " fill="#373466" transform="translate(119,126)"/>
<path d="M0 0 C0.99 0.33 1.98 0.66 3 1 C4.1875 3.5625 4.1875 3.5625 5 6 C4.01 6.495 4.01 6.495 3 7 C3 6.01 3 5.02 3 4 C1.68 4.33 0.36 4.66 -1 5 C-1.33 4.34 -1.66 3.68 -2 3 C-1.34 2.01 -0.68 1.02 0 0 Z " fill="#3B366B" transform="translate(530,115)"/>
<path d="M0 0 C2.61527381 2.36620011 4.26440562 4.942048 6 8 C4.68 8.33 3.36 8.66 2 9 C0.14223235 5.86501708 -0.20140476 3.62528568 0 0 Z " fill="#3F3A65" transform="translate(406,114)"/>
<path d="M0 0 C1.9375 0.375 1.9375 0.375 4 1 C4.33 1.66 4.66 2.32 5 3 C4.34 3 3.68 3 3 3 C3 3.66 3 4.32 3 5 C1.68 4.67 0.36 4.34 -1 4 C-0.67 2.68 -0.34 1.36 0 0 Z " fill="#434061" transform="translate(782,322)"/>
<path d="M0 0 C0.99 0.33 1.98 0.66 3 1 C1.515 4.465 1.515 4.465 0 8 C-0.66 7.34 -1.32 6.68 -2 6 C-1.44444444 1.44444444 -1.44444444 1.44444444 0 0 Z " fill="#353263" transform="translate(83,203)"/>
<path d="M0 0 C0.66 0 1.32 0 2 0 C2.99 3.3 3.98 6.6 5 10 C4.01 9.67 3.02 9.34 2 9 C1.25 7.0625 1.25 7.0625 1 5 C1.33 4.34 1.66 3.68 2 3 C1.34 3 0.68 3 0 3 C0 2.01 0 1.02 0 0 Z " fill="#4C4871" transform="translate(229,168)"/>
<path d="M0 0 C0.99 0.33 1.98 0.66 3 1 C2.60196439 3.88575819 2.20990931 4.82189513 -0.0625 6.75 C-0.701875 7.1625 -1.34125 7.575 -2 8 C-1.34 5.36 -0.68 2.72 0 0 Z " fill="#433E69" transform="translate(79,165)"/>
<path d="M0 0 C0.33 0 0.66 0 1 0 C1.33 1.98 1.66 3.96 2 6 C-0.475 7.485 -0.475 7.485 -3 9 C-2.01 6.03 -1.02 3.06 0 0 Z " fill="#4B496F" transform="translate(655,161)"/>
<path d="M0 0 C0 0.99 0 1.98 0 3 C-1.98 3.33 -3.96 3.66 -6 4 C-6 3.01 -6 2.02 -6 1 C-3 0 -3 0 0 0 Z " fill="#484366" transform="translate(719,325)"/>
<path d="M0 0 C0.33 0 0.66 0 1 0 C1 2.97 1 5.94 1 9 C-0.32 9 -1.64 9 -3 9 C-2.67 7.68 -2.34 6.36 -2 5 C-1.67 5 -1.34 5 -1 5 C-0.67 3.35 -0.34 1.7 0 0 Z " fill="#2E2A4F" transform="translate(760,319)"/>
<path d="M0 0 C0 1.98 0 3.96 0 6 C-1.98 6.99 -1.98 6.99 -4 8 C-3.74438677 5.6568787 -3.40729228 3.32156597 -3 1 C-1 0 -1 0 0 0 Z " fill="#F2F4FB" transform="translate(756,315)"/>
<path d="M0 0 C0.66 0.99 1.32 1.98 2 3 C1.34 3.66 0.68 4.32 0 5 C-0.99 5 -1.98 5 -3 5 C-3.66 3.68 -4.32 2.36 -5 1 C-2.525 1.495 -2.525 1.495 0 2 C0 1.34 0 0.68 0 0 Z " fill="#403B69" transform="translate(237,230)"/>
<path d="M0 0 C1.80411967 2.75924185 2.0127245 3.88972103 1.625 7.25 C1.41875 8.1575 1.2125 9.065 1 10 C-0.32 8.35 -1.64 6.7 -3 5 C-2.01 3.35 -1.02 1.7 0 0 Z " fill="#393167" transform="translate(460,220)"/>
<path d="M0 0 C0.99 0.33 1.98 0.66 3 1 C4.1875 3.5625 4.1875 3.5625 5 6 C4.01 6.33 3.02 6.66 2 7 C1.01 5.02 0.02 3.04 -1 1 C-0.67 0.67 -0.34 0.34 0 0 Z " fill="#423D69" transform="translate(421,167)"/>
<path d="M0 0 C2.66735273 2.48952921 4.55746343 4.63408134 6 8 C4.35 8.33 2.7 8.66 1 9 C0.67 6.03 0.34 3.06 0 0 Z " fill="#454170" transform="translate(419,134)"/>
<path d="M0 0 C0.99 0.33 1.98 0.66 3 1 C4.1875 3.5625 4.1875 3.5625 5 6 C3.02 5.34 1.04 4.68 -1 4 C-1 1 -1 1 0 0 Z " fill="#3D3A68" transform="translate(526,108)"/>
<path d="M0 0 C2.99324263 1.0975223 3.84610901 1.67682892 5.25 4.625 C5.4975 5.40875 5.745 6.1925 6 7 C5.01 7.495 5.01 7.495 4 8 C3.34 7.01 2.68 6.02 2 5 C1.34 4.67 0.68 4.34 0 4 C0 2.68 0 1.36 0 0 Z " fill="#3B3463" transform="translate(400,107)"/>
<path d="M0 0 C1.5 1.1875 1.5 1.1875 3 3 C3.1875 5.6875 3.1875 5.6875 3 8 C2.01 8.495 2.01 8.495 1 9 C0.63877119 7.68942607 0.28619689 6.37646376 -0.0625 5.0625 C-0.35833984 3.96615234 -0.35833984 3.96615234 -0.66015625 2.84765625 C-0.77230469 2.23792969 -0.88445312 1.62820312 -1 1 C-0.67 0.67 -0.34 0.34 0 0 Z " fill="#3C3864" transform="translate(153,213)"/>
<path d="M0 0 C0.66 0 1.32 0 2 0 C2.66 2.31 3.32 4.62 4 7 C2.68 6.67 1.36 6.34 0 6 C0 4.02 0 2.04 0 0 Z " fill="#444069" transform="translate(713,131)"/>
<path d="M0 0 C2 3 2 3 1.625 6.1875 C1.41875 7.115625 1.2125 8.04375 1 9 C0.01 8.67 -0.98 8.34 -2 8 C-1.34 5.36 -0.68 2.72 0 0 Z " fill="#43406A" transform="translate(94,126)"/>
<path d="M0 0 C0.20086443 3.71599191 0.1519437 4.77208445 -2 8 C-2.66 7.67 -3.32 7.34 -4 7 C-4 3 -4 3 -2.5625 1.25 C-1 0 -1 0 0 0 Z " fill="#2C295C" transform="translate(596,112)"/>
<path d="M0 0 C0.33 0.66 0.66 1.32 1 2 C-1.48387097 8.74193548 -1.48387097 8.74193548 -4 10 C-3.52449439 8.51965236 -3.04448784 7.04074979 -2.5625 5.5625 C-2.29566406 4.73878906 -2.02882813 3.91507812 -1.75390625 3.06640625 C-1 1 -1 1 0 0 Z " fill="#545173" transform="translate(105,100)"/>
<path d="M0 0 C1.32 0.66 2.64 1.32 4 2 C4 3.32 4 4.64 4 6 C2.35 5.67 0.7 5.34 -1 5 C-0.67 3.35 -0.34 1.7 0 0 Z " fill="#403A68" transform="translate(567,322)"/>
<path d="M0 0 C1.4606285 2.64738916 2 3.89448334 2 7 C2.66 7.33 3.32 7.66 4 8 C3.01 8.495 3.01 8.495 2 9 C1.01 8.67 0.02 8.34 -1 8 C-0.67 5.36 -0.34 2.72 0 0 Z " fill="#55507A" transform="translate(748,315)"/>
<path d="M0 0 C0.66 0.33 1.32 0.66 2 1 C1.67 2.32 1.34 3.64 1 5 C-0.32 5 -1.64 5 -3 5 C-3 3.68 -3 2.36 -3 1 C-2.01 0.67 -1.02 0.34 0 0 Z " fill="#F8F8F9" transform="translate(796,311)"/>
<path d="M0 0 C1.98 0 3.96 0 6 0 C5.01 0.495 5.01 0.495 4 1 C4 1.99 4 2.98 4 4 C2.68 4 1.36 4 0 4 C0 2.68 0 1.36 0 0 Z " fill="#E1DFEB" transform="translate(702,306)"/>
<path d="M0 0 C1.65 0 3.3 0 5 0 C3.68 2.64 2.36 5.28 1 8 C0 4 0 4 0 0 Z " fill="#2A255F" transform="translate(634,217)"/>
<path d="M0 0 C0.99 0.66 1.98 1.32 3 2 C3 2.66 3 3.32 3 4 C2.01 4.495 2.01 4.495 1 5 C0.67 5.66 0.34 6.32 0 7 C-0.66 5.68 -1.32 4.36 -2 3 C-1.34 2.01 -0.68 1.02 0 0 Z " fill="#373071" transform="translate(658,200)"/>
<path d="M0 0 C0.66 0.33 1.32 0.66 2 1 C1.67 2.65 1.34 4.3 1 6 C0.01 6 -0.98 6 -2 6 C-2 4.68 -2 3.36 -2 2 C-1.34 2 -0.68 2 0 2 C0 1.34 0 0.68 0 0 Z " fill="#2D2B5B" transform="translate(91,179)"/>
<path d="M0 0 C0.33 0 0.66 0 1 0 C1.33 2.64 1.66 5.28 2 8 C1.01 8.495 1.01 8.495 0 9 C-0.66 6.69 -1.32 4.38 -2 2 C-1.34 1.34 -0.68 0.68 0 0 Z " fill="#413B68" transform="translate(709,161)"/>
<path d="M0 0 C1.99097846 2.98646769 2.94124926 5.59687262 4 9 C3.01 9.495 3.01 9.495 2 10 C1.01 7.03 0.02 4.06 -1 1 C-0.67 0.67 -0.34 0.34 0 0 Z " fill="#3C3764" transform="translate(699,138)"/>
<path d="M0 0 C1.32 0.33 2.64 0.66 4 1 C4.33 2.65 4.66 4.3 5 6 C4.01 6.495 4.01 6.495 3 7 C0 2.25 0 2.25 0 0 Z " fill="#393565" transform="translate(522,134)"/>
<path d="M0 0 C0.33 0 0.66 0 1 0 C0.67 2.64 0.34 5.28 0 8 C-0.99 8.33 -1.98 8.66 -3 9 C-2.01 6.03 -1.02 3.06 0 0 Z " fill="#504975" transform="translate(671,119)"/>
<path d="M0 0 C3 3.75 3 3.75 3 6 C1.35 6 -0.3 6 -2 6 C-1.34 4.02 -0.68 2.04 0 0 Z " fill="#DCDEED" transform="translate(116,121)"/>
</svg>
